<svg width="112" height="112" viewBox="0 0 112 112" fill="none" xmlns="http://www.w3.org/2000/svg">
<g clip-path="url(#clip0_505_123)">
<rect x="1.99988" y="2" width="108" height="108" rx="8" fill="white"/>
<path d="M20.323 42.0017L16 52.078H18.8145L19.6122 50.0603H24.2493L25.0428 52.078H27.9193L23.6004 42.0017H20.323ZM21.9225 44.3468L23.3359 47.8727H20.5049L21.9225 44.3468Z" fill="#016FD0"/>
<path d="M28.2172 52.0762V42L32.2167 42.0149L34.543 48.5114L36.8136 42H40.7812V52.0762H38.2684V44.6516L35.6048 52.0762H33.401L30.73 44.6516V52.0762H28.2172Z" fill="#016FD0"/>
<path d="M42.5005 52.0762V42H50.7002V44.2539H45.0397V45.9775H50.5679V48.0988H45.0397V49.8886H50.7002V52.0762H42.5005Z" fill="#016FD0"/>
<path d="M52.1548 42.0017V52.078H54.6676V48.4983H55.7256L58.7385 52.078H61.8092L58.5029 48.3657C59.8599 48.2509 61.2596 47.0834 61.2596 45.2707C61.2596 43.1503 59.5994 42.0017 57.7466 42.0017H52.1548ZM54.6676 44.2556H57.54C58.229 44.2556 58.7302 44.796 58.7302 45.3163C58.7302 45.9857 58.0808 46.3769 57.5772 46.3769H54.6676V44.2556Z" fill="#016FD0"/>
<path d="M64.851 52.0762H62.2853V42H64.851V52.0762Z" fill="#016FD0"/>
<path d="M70.9346 52.0762H70.3808C67.7013 52.0762 66.0743 49.9599 66.0743 47.0796C66.0743 44.128 67.683 42 71.0669 42H73.8442V44.3865H70.9653C69.5917 44.3865 68.6202 45.4611 68.6202 47.1044C68.6202 49.0558 69.7311 49.8754 71.3314 49.8754H71.9927L70.9346 52.0762Z" fill="#016FD0"/>
<path d="M76.4025 42.0017L72.0795 52.078H74.894L75.6916 50.0602H80.3287L81.1223 52.078H83.9988L79.6799 42.0017H76.4025ZM78.0019 44.3468L79.4154 47.8726H76.5843L78.0019 44.3468Z" fill="#016FD0"/>
<path d="M84.2921 52.0762V42H87.4869L91.566 48.3308V42H94.0788V52.0762H90.9874L86.8049 45.5797V52.0762H84.2921Z" fill="#016FD0"/>
<path d="M28.6029 69.7097V59.6334H36.8026V61.8873H31.1422V63.6109H36.6703V65.7322H31.1422V67.5221H36.8026V69.7097H28.6029Z" fill="#016FD0"/>
<path d="M68.7811 69.7097V59.6334H76.9808V61.8873H71.3204V63.6109H76.8221V65.7322H71.3204V67.5221H76.9808V69.7097H68.7811Z" fill="#016FD0"/>
<path d="M37.1208 69.7097L41.1132 64.7337L37.0258 59.6334H40.1916L42.6258 62.7864L45.0684 59.6334H48.1102L44.0765 64.6715L48.0762 69.7097H44.9109L42.5473 66.6064L40.2412 69.7097H37.1208Z" fill="#016FD0"/>
<path d="M48.3745 59.6352V69.7114H50.9534V66.5294H53.5985C55.8366 66.5294 57.533 65.3391 57.533 63.0243C57.533 61.1067 56.2025 59.6352 53.925 59.6352H48.3745ZM50.9534 61.9139H53.739C54.4621 61.9139 54.9789 62.3582 54.9789 63.074C54.9789 63.7465 54.4647 64.2341 53.7308 64.2341H50.9534V61.9139Z" fill="#016FD0"/>
<path d="M58.6241 59.6334V69.7097H61.137V66.1299H62.195L65.2079 69.7097H68.2786L64.9723 65.9974C66.3292 65.8826 67.7289 64.715 67.7289 62.9024C67.7289 60.782 66.0688 59.6334 64.216 59.6334H58.6241ZM61.137 61.8873H64.0093C64.6984 61.8873 65.1996 62.4276 65.1996 62.948C65.1996 63.6174 64.5502 64.0086 64.0465 64.0086H61.137V61.8873Z" fill="#016FD0"/>
<path d="M78.1446 69.7097V67.5221H83.1735C83.9176 67.5221 84.2398 67.119 84.2398 66.6769C84.2398 66.2533 83.9187 65.825 83.1735 65.825H80.901C78.9257 65.825 77.8256 64.6185 77.8256 62.8071C77.8256 61.1915 78.833 59.6334 81.7684 59.6334H86.6617L85.6037 61.9006H81.3716C80.5626 61.9006 80.3136 62.3261 80.3136 62.7325C80.3136 63.1502 80.6213 63.6109 81.2393 63.6109H83.6199C85.8219 63.6109 86.7774 64.8631 86.7774 66.5028C86.7774 68.2658 85.7127 69.7097 83.5 69.7097H78.1446Z" fill="#016FD0"/>
<path d="M87.3672 69.7097V67.5221H92.3961C93.1402 67.5221 93.4624 67.119 93.4624 66.6769C93.4624 66.2533 93.1412 65.825 92.3961 65.825H90.1236C88.1482 65.825 87.0481 64.6185 87.0481 62.8071C87.0481 61.1915 88.0555 59.6334 90.9909 59.6334H95.8842L94.8262 61.9006H90.5941C89.7851 61.9006 89.5361 62.3261 89.5361 62.7325C89.5361 63.1502 89.8439 63.6109 90.4619 63.6109H92.8424C95.0445 63.6109 96 64.8631 96 66.5028C96 68.2658 94.9352 69.7097 92.7226 69.7097H87.3672Z" fill="#016FD0"/>
</g>
<rect x="1" y="1" width="110" height="110" rx="9" stroke="black" stroke-opacity="0.1" stroke-width="2"/>
<defs>
<clipPath id="clip0_505_123">
<rect x="2" y="2" width="108" height="108" rx="8" fill="white"/>
</clipPath>
</defs>
</svg>
