<svg width="112" height="112" viewBox="0 0 112 112" fill="none" xmlns="http://www.w3.org/2000/svg">
<g clip-path="url(#clip0_505_114)">
<rect x="1.99988" y="2" width="108" height="108" rx="8" fill="white"/>
<g clip-path="url(#clip1_505_114)">
<path d="M20.54 49.49H17V61.87H20.53C22.4 61.87 23.76 61.43 24.95 60.44C26.36 59.27 27.2 57.51 27.2 55.69C27.19 52.03 24.46 49.49 20.54 49.49ZM23.36 58.79C22.6 59.47 21.62 59.77 20.06 59.77H19.41V51.59H20.06C21.62 51.59 22.57 51.87 23.36 52.59C24.2 53.33 24.7 54.49 24.7 55.67C24.7 56.85 24.2 58.05 23.36 58.79Z" fill="#231F20"/>
<path d="M30.71 49.49H28.3V61.87H30.71V49.49Z" fill="#231F20"/>
<path d="M36.62 54.24C35.17 53.7 34.75 53.35 34.75 52.68C34.75 51.9 35.51 51.31 36.55 51.31C37.27 51.31 37.87 51.61 38.5 52.31L39.76 50.66C38.72 49.75 37.48 49.29 36.12 49.29C33.93 49.29 32.26 50.81 32.26 52.84C32.26 54.55 33.04 55.42 35.31 56.23C36.25 56.56 36.74 56.79 36.98 56.93C37.46 57.24 37.7 57.69 37.7 58.21C37.7 59.21 36.9 59.96 35.82 59.96C34.67 59.96 33.74 59.38 33.18 58.31L31.62 59.81C32.73 61.44 34.07 62.17 35.91 62.17C38.42 62.17 40.18 60.5 40.18 58.11C40.18 56.14 39.37 55.25 36.62 54.25V54.24Z" fill="#231F20"/>
<path d="M40.9399 55.69C40.9399 59.33 43.7999 62.15 47.4699 62.15C48.5099 62.15 49.3999 61.95 50.4999 61.43V58.59C49.5299 59.56 48.6799 59.95 47.5799 59.95C45.1499 59.95 43.4199 58.19 43.4199 55.68C43.4199 53.3 45.1999 51.43 47.4699 51.43C48.6199 51.43 49.4899 51.84 50.4999 52.82V49.97C49.4399 49.43 48.5699 49.21 47.5299 49.21C43.8699 49.21 40.9399 52.09 40.9399 55.69Z" fill="#231F20"/>
<path d="M69.65 57.8L66.35 49.49H63.71L68.96 62.19H70.26L75.61 49.49H72.99L69.65 57.8Z" fill="#231F20"/>
<path d="M76.7 61.87H83.55V59.77H79.11V56.43H83.3899V54.33H79.11V51.59H83.55V49.49H76.7V61.87Z" fill="#231F20"/>
<path d="M93.11 53.14C93.11 50.82 91.51 49.49 88.73 49.49H85.15V61.87H87.56V56.9H87.88L91.22 61.87H94.19L90.29 56.65C92.11 56.28 93.11 55.04 93.11 53.14ZM88.27 55.18H87.56V51.44H88.3C89.8 51.44 90.62 52.07 90.62 53.28C90.62 54.49 89.8 55.19 88.26 55.19L88.27 55.18Z" fill="#231F20"/>
<path d="M95.04 50.14C95.04 49.92 94.89 49.8 94.63 49.8H94.28V50.89H94.54V50.47L94.85 50.89H95.17L94.81 50.44C94.96 50.4 95.05 50.29 95.05 50.14H95.04ZM94.58 50.29H94.54V50H94.59C94.72 50 94.79 50.05 94.79 50.14C94.79 50.23 94.72 50.29 94.59 50.29H94.58Z" fill="#231F20"/>
<path d="M94.67 49.39C94.14 49.39 93.72 49.81 93.72 50.34C93.72 50.87 94.15 51.29 94.67 51.29C95.19 51.29 95.61 50.86 95.61 50.34C95.61 49.82 95.19 49.39 94.67 49.39ZM94.67 51.12C94.25 51.12 93.91 50.77 93.91 50.34C93.91 49.91 94.25 49.56 94.67 49.56C95.09 49.56 95.42 49.92 95.42 50.34C95.42 50.76 95.08 51.12 94.67 51.12Z" fill="#231F20"/>
<path d="M64.4 55.67C64.4 59.29 61.47 62.23 57.84 62.23C54.21 62.23 51.28 59.3 51.28 55.67C51.28 52.04 54.22 49.11 57.84 49.11C61.46 49.11 64.4 52.04 64.4 55.67Z" fill="url(#paint0_linear_505_114)"/>
<path opacity="0.65" d="M64.4 55.67C64.4 59.29 61.47 62.23 57.84 62.23C54.21 62.23 51.28 59.3 51.28 55.67C51.28 52.04 54.22 49.11 57.84 49.11C61.46 49.11 64.4 52.04 64.4 55.67Z" fill="url(#paint1_linear_505_114)" style="mix-blend-mode:multiply"/>
<g style="mix-blend-mode:multiply" opacity="0.5">
<mask id="mask0_505_114" style="mask-type:luminance" maskUnits="userSpaceOnUse" x="51" y="49" width="14" height="14">
<path d="M64.4 55.67C64.4 59.29 61.46 62.23 57.84 62.23C54.22 62.23 51.28 59.3 51.28 55.67C51.28 52.04 54.22 49.11 57.84 49.11C61.46 49.11 64.4 52.04 64.4 55.67Z" fill="white"/>
</mask>
<g mask="url(#mask0_505_114)">
<path d="M64.55 55.69C64.55 59.38 61.56 62.38 57.86 62.38C54.16 62.38 51.17 59.39 51.17 55.69C51.17 51.99 54.16 49 57.86 49C61.56 49 64.55 51.99 64.55 55.69Z" fill="#3F1313"/>
<path d="M57.8701 49C61.5601 49 64.5601 51.99 64.5601 55.69C64.5601 59.39 61.5701 62.38 57.8701 62.38C54.1701 62.38 51.1801 59.39 51.1801 55.69C51.1801 52 54.1701 49 57.8701 49Z" fill="#3F1414"/>
<path d="M57.8701 49.01C61.5601 49.01 64.5601 52 64.5601 55.7C64.5601 59.4 61.5701 62.39 57.8701 62.39C54.1701 62.39 51.1801 59.4 51.1801 55.7C51.1801 52.01 54.1701 49.01 57.8701 49.01Z" fill="#401414"/>
<path d="M57.8801 49.02C61.5701 49.02 64.5701 52.01 64.5701 55.71C64.5701 59.41 61.5801 62.4 57.8801 62.4C54.1801 62.4 51.1901 59.41 51.1901 55.71C51.1901 52.02 54.1901 49.02 57.8801 49.02Z" fill="#401514"/>
<path d="M57.8801 49.02C61.5701 49.02 64.5601 52.01 64.5601 55.7C64.5601 59.39 61.5701 62.38 57.8801 62.38C54.1901 62.38 51.1901 59.39 51.2001 55.7C51.2001 52.01 54.2001 49.01 57.8801 49.02Z" fill="#411514"/>
<path d="M57.8801 49.03C61.5701 49.03 64.5601 52.02 64.5601 55.71C64.5601 59.4 61.5701 62.39 57.8801 62.39C54.1901 62.39 51.1901 59.4 51.2001 55.71C51.2001 52.02 54.2001 49.02 57.8801 49.03Z" fill="#411615"/>
<path d="M57.89 49.03C61.58 49.03 64.57 52.02 64.57 55.71C64.57 59.4 61.58 62.39 57.89 62.39C54.2 62.39 51.2 59.4 51.21 55.71C51.21 52.02 54.21 49.02 57.89 49.03Z" fill="#421615"/>
<path d="M57.89 49.04C61.58 49.04 64.57 52.03 64.57 55.72C64.57 59.41 61.58 62.4 57.89 62.4C54.2 62.4 51.2 59.41 51.21 55.72C51.21 52.03 54.21 49.03 57.89 49.04Z" fill="#431615"/>
<path d="M57.9 49.04C61.59 49.04 64.58 52.03 64.58 55.72C64.58 59.41 61.59 62.4 57.9 62.4C54.21 62.4 51.21 59.41 51.22 55.72C51.22 52.03 54.22 49.03 57.9 49.04Z" fill="#431715"/>
<path d="M57.9 49.05C61.59 49.05 64.58 52.04 64.58 55.73C64.58 59.42 61.59 62.41 57.9 62.41C54.21 62.41 51.21 59.42 51.22 55.73C51.22 52.04 54.22 49.04 57.9 49.05Z" fill="#441716"/>
<path d="M57.91 49.06C61.6 49.06 64.59 52.05 64.59 55.74C64.59 59.43 61.6 62.42 57.91 62.42C54.22 62.42 51.22 59.43 51.23 55.74C51.23 52.05 54.23 49.05 57.91 49.06Z" fill="#441816"/>
<path d="M57.91 49.06C61.6 49.06 64.59 52.05 64.59 55.74C64.59 59.43 61.6 62.42 57.91 62.42C54.22 62.42 51.22 59.43 51.23 55.74C51.23 52.05 54.23 49.05 57.91 49.06Z" fill="#451816"/>
<path d="M57.91 49.07C61.6 49.07 64.59 52.06 64.59 55.75C64.59 59.44 61.6 62.43 57.91 62.43C54.22 62.43 51.22 59.44 51.23 55.75C51.23 52.06 54.23 49.06 57.91 49.07Z" fill="#451816"/>
<path d="M57.92 49.07C61.61 49.07 64.6 52.06 64.6 55.75C64.6 59.44 61.61 62.43 57.92 62.43C54.23 62.43 51.23 59.44 51.24 55.75C51.24 52.06 54.24 49.06 57.92 49.07Z" fill="#461916"/>
<path d="M57.92 49.08C61.61 49.08 64.6 52.07 64.6 55.76C64.6 59.45 61.61 62.44 57.92 62.44C54.23 62.44 51.23 59.45 51.24 55.76C51.24 52.07 54.24 49.07 57.92 49.08Z" fill="#461917"/>
<path d="M57.93 49.08C61.62 49.08 64.61 52.07 64.61 55.76C64.61 59.45 61.62 62.44 57.93 62.44C54.24 62.44 51.24 59.45 51.25 55.76C51.25 52.07 54.25 49.07 57.93 49.08Z" fill="#471917"/>
<path d="M57.93 49.09C61.62 49.09 64.61 52.08 64.61 55.77C64.61 59.46 61.62 62.45 57.93 62.45C54.24 62.45 51.24 59.46 51.25 55.77C51.25 52.08 54.25 49.08 57.93 49.09Z" fill="#481A17"/>
<path d="M57.94 49.09C61.63 49.1 64.62 52.08 64.62 55.77C64.62 59.46 61.63 62.45 57.94 62.45C54.25 62.45 51.25 59.46 51.26 55.77C51.26 52.08 54.26 49.08 57.94 49.09Z" fill="#481A17"/>
<path d="M57.94 49.1C61.63 49.11 64.62 52.09 64.62 55.78C64.62 59.47 61.63 62.46 57.94 62.46C54.25 62.46 51.25 59.47 51.26 55.78C51.27 52.09 54.26 49.09 57.94 49.1Z" fill="#491B17"/>
<path d="M57.95 49.11C61.64 49.12 64.62 52.1 64.62 55.79C64.62 59.48 61.63 62.46 57.95 62.46C54.27 62.46 51.26 59.47 51.27 55.79C51.28 52.1 54.27 49.1 57.95 49.11Z" fill="#491B18"/>
<path d="M57.95 49.11C61.64 49.12 64.62 52.1 64.62 55.78C64.62 59.46 61.63 62.45 57.95 62.45C54.27 62.45 51.26 59.46 51.28 55.78C51.29 52.09 54.28 49.09 57.95 49.11Z" fill="#4A1B18"/>
<path d="M57.95 49.12C61.64 49.13 64.62 52.11 64.62 55.79C64.62 59.47 61.63 62.46 57.95 62.46C54.27 62.46 51.26 59.47 51.28 55.79C51.29 52.1 54.28 49.1 57.95 49.12Z" fill="#4A1C18"/>
<path d="M57.96 49.12C61.64 49.13 64.63 52.11 64.63 55.79C64.63 59.47 61.64 62.46 57.96 62.46C54.28 62.46 51.27 59.47 51.29 55.79C51.3 52.1 54.29 49.1 57.96 49.12Z" fill="#4B1C18"/>
<path d="M57.96 49.13C61.64 49.14 64.63 52.12 64.63 55.8C64.63 59.48 61.64 62.47 57.96 62.47C54.28 62.47 51.27 59.48 51.29 55.8C51.3 52.11 54.3 49.11 57.96 49.13Z" fill="#4C1D18"/>
<path d="M57.97 49.13C61.65 49.14 64.64 52.12 64.64 55.8C64.64 59.48 61.65 62.47 57.97 62.47C54.29 62.47 51.28 59.48 51.3 55.8C51.31 52.11 54.31 49.11 57.97 49.13Z" fill="#4C1D19"/>
<path d="M57.9701 49.14C61.6501 49.16 64.6401 52.13 64.6401 55.81C64.6401 59.49 61.6501 62.48 57.9701 62.48C54.2901 62.48 51.2901 59.49 51.3001 55.81C51.3101 52.12 54.3101 49.12 57.9701 49.14Z" fill="#4D1D19"/>
<path d="M57.9801 49.15C61.6601 49.17 64.6501 52.14 64.6501 55.82C64.6501 59.5 61.6601 62.49 57.9801 62.49C54.3001 62.49 51.3001 59.5 51.3101 55.82C51.3201 52.13 54.3201 49.13 57.9801 49.15Z" fill="#4D1E19"/>
<path d="M57.9801 49.15C61.6601 49.17 64.6501 52.14 64.6501 55.82C64.6501 59.5 61.6601 62.49 57.9801 62.49C54.3001 62.49 51.3001 59.5 51.3101 55.82C51.3301 52.13 54.3201 49.13 57.9801 49.15Z" fill="#4E1E19"/>
<path d="M57.9801 49.16C61.6601 49.18 64.6501 52.15 64.6501 55.83C64.6501 59.51 61.6601 62.5 57.9801 62.5C54.3001 62.5 51.3001 59.51 51.3101 55.83C51.3301 52.14 54.3201 49.14 57.9801 49.16Z" fill="#4E1E19"/>
<path d="M57.9901 49.16C61.6701 49.18 64.6601 52.15 64.6601 55.83C64.6601 59.51 61.6701 62.5 57.9901 62.5C54.3101 62.5 51.3101 59.51 51.3201 55.83C51.3401 52.14 54.3301 49.14 57.9901 49.16Z" fill="#4F1F1A"/>
<path d="M57.9901 49.17C61.6701 49.19 64.6601 52.16 64.6601 55.84C64.6601 59.52 61.6701 62.51 57.9901 62.51C54.3101 62.51 51.3101 59.52 51.3201 55.84C51.3401 52.15 54.3301 49.15 57.9901 49.17Z" fill="#501F1A"/>
<path d="M58.0001 49.17C61.6801 49.19 64.6701 52.16 64.6701 55.84C64.6701 59.52 61.6801 62.51 58.0001 62.51C54.3201 62.51 51.3201 59.53 51.3301 55.84C51.3501 52.15 54.3401 49.15 58.0001 49.17Z" fill="#50201A"/>
<path d="M58.0001 49.18C61.6801 49.2 64.6701 52.16 64.6701 55.85C64.6701 59.54 61.6901 62.52 58.0001 62.52C54.3101 62.52 51.3201 59.54 51.3301 55.85C51.3501 52.15 54.3401 49.16 58.0001 49.18Z" fill="#51201A"/>
<path d="M58.01 49.18C61.69 49.2 64.68 52.16 64.68 55.85C64.68 59.54 61.7 62.52 58.01 62.52C54.32 62.52 51.33 59.54 51.34 55.85C51.36 52.15 54.35 49.16 58.01 49.18Z" fill="#51201A"/>
<path d="M58.01 49.19C61.69 49.21 64.67 52.17 64.67 55.86C64.67 59.55 61.69 62.52 58.01 62.52C54.33 62.52 51.33 59.54 51.34 55.86C51.36 52.16 54.35 49.17 58.01 49.19Z" fill="#52211A"/>
<path d="M58.0201 49.2C61.7001 49.22 64.6801 52.18 64.6801 55.86C64.6801 59.54 61.7001 62.52 58.0201 62.52C54.3401 62.52 51.3401 59.54 51.3601 55.86C51.3801 52.16 54.3701 49.17 58.0201 49.2Z" fill="#52211B"/>
<path d="M58.0201 49.2C61.7001 49.22 64.6801 52.18 64.6801 55.86C64.6801 59.54 61.7001 62.52 58.0201 62.52C54.3401 62.52 51.3401 59.54 51.3601 55.86C51.3801 52.16 54.3701 49.17 58.0201 49.2Z" fill="#53211B"/>
<path d="M58.0201 49.21C61.7001 49.23 64.6801 52.19 64.6801 55.87C64.6801 59.55 61.7001 62.53 58.0201 62.53C54.3401 62.53 51.3401 59.55 51.3601 55.87C51.3801 52.17 54.3701 49.18 58.0201 49.21Z" fill="#54221B"/>
<path d="M58.0301 49.21C61.7101 49.23 64.6901 52.19 64.6901 55.87C64.6901 59.55 61.7101 62.53 58.0301 62.53C54.3501 62.53 51.3501 59.55 51.3701 55.87C51.3901 52.17 54.3801 49.18 58.0301 49.21Z" fill="#54221B"/>
<path d="M58.0301 49.22C61.7101 49.24 64.6901 52.2 64.6901 55.88C64.6901 59.56 61.7101 62.54 58.0301 62.54C54.3501 62.54 51.3501 59.56 51.3701 55.88C51.3901 52.18 54.3801 49.19 58.0301 49.22Z" fill="#55221B"/>
<path d="M58.0401 49.22C61.7201 49.24 64.7001 52.2 64.7001 55.88C64.7001 59.56 61.7201 62.54 58.0401 62.54C54.3601 62.54 51.3601 59.56 51.3801 55.88C51.4001 52.18 54.3901 49.19 58.0401 49.22Z" fill="#55231B"/>
<path d="M58.0401 49.23C61.7201 49.26 64.7001 52.21 64.7001 55.89C64.7001 59.57 61.7201 62.55 58.0401 62.55C54.3601 62.55 51.3601 59.57 51.3801 55.89C51.4001 52.19 54.3901 49.2 58.0401 49.23Z" fill="#56231C"/>
<path d="M58.05 49.23C61.73 49.26 64.71 52.21 64.71 55.89C64.71 59.57 61.73 62.55 58.05 62.55C54.37 62.55 51.37 59.57 51.39 55.89C51.41 52.19 54.41 49.2 58.05 49.23Z" fill="#57231C"/>
<path d="M58.05 49.24C61.73 49.27 64.71 52.22 64.71 55.9C64.71 59.58 61.73 62.56 58.05 62.56C54.37 62.56 51.37 59.58 51.39 55.9C51.41 52.2 54.41 49.22 58.05 49.24Z" fill="#57241C"/>
<path d="M58.05 49.25C61.73 49.28 64.71 52.23 64.71 55.91C64.71 59.59 61.73 62.57 58.05 62.57C54.37 62.57 51.37 59.59 51.39 55.91C51.41 52.21 54.41 49.23 58.05 49.25Z" fill="#58241C"/>
<path d="M58.06 49.25C61.74 49.28 64.72 52.23 64.72 55.91C64.72 59.59 61.74 62.57 58.06 62.57C54.38 62.57 51.38 59.59 51.4 55.91C51.43 52.21 54.42 49.23 58.06 49.25Z" fill="#58241C"/>
<path d="M58.06 49.26C61.74 49.29 64.72 52.24 64.72 55.92C64.72 59.6 61.74 62.58 58.06 62.58C54.38 62.58 51.38 59.6 51.4 55.92C51.43 52.22 54.42 49.24 58.06 49.26Z" fill="#59251C"/>
<path d="M58.07 49.26C61.75 49.29 64.73 52.24 64.73 55.92C64.73 59.6 61.75 62.58 58.07 62.58C54.39 62.58 51.39 59.6 51.41 55.92C51.44 52.22 54.43 49.24 58.07 49.26Z" fill="#59251C"/>
<path d="M58.07 49.27C61.75 49.3 64.73 52.25 64.73 55.93C64.73 59.61 61.75 62.59 58.07 62.59C54.39 62.59 51.39 59.61 51.41 55.93C51.44 52.23 54.43 49.25 58.07 49.27Z" fill="#5A251D"/>
<path d="M58.08 49.27C61.75 49.3 64.74 52.25 64.74 55.93C64.74 59.61 61.76 62.59 58.08 62.59C54.4 62.59 51.4 59.61 51.42 55.93C51.45 52.23 54.44 49.25 58.08 49.27Z" fill="#5B261D"/>
<path d="M58.08 49.28C61.75 49.31 64.73 52.26 64.73 55.93C64.73 59.6 61.75 62.58 58.08 62.58C54.41 62.58 51.4 59.6 51.43 55.93C51.46 52.23 54.45 49.25 58.08 49.28Z" fill="#5B261D"/>
<path d="M58.09 49.28C61.76 49.31 64.74 52.26 64.74 55.93C64.74 59.6 61.76 62.58 58.09 62.58C54.42 62.58 51.41 59.6 51.44 55.93C51.47 52.23 54.46 49.25 58.09 49.28Z" fill="#5C261D"/>
<path d="M58.09 49.29C61.76 49.32 64.74 52.27 64.74 55.94C64.74 59.61 61.76 62.59 58.09 62.59C54.42 62.59 51.41 59.61 51.44 55.94C51.47 52.24 54.46 49.26 58.09 49.29Z" fill="#5C271D"/>
<path d="M58.09 49.3C61.76 49.33 64.74 52.28 64.74 55.95C64.74 59.62 61.76 62.6 58.09 62.6C54.42 62.6 51.41 59.62 51.44 55.95C51.47 52.25 54.46 49.27 58.09 49.3Z" fill="#5D271D"/>
<path d="M58.1 49.3C61.77 49.33 64.7501 52.28 64.7501 55.95C64.7501 59.62 61.77 62.6 58.1 62.6C54.43 62.6 51.4201 59.62 51.4501 55.95C51.4801 52.25 54.47 49.27 58.1 49.3Z" fill="#5E281D"/>
<path d="M58.1 49.31C61.77 49.34 64.7501 52.29 64.7501 55.96C64.7501 59.63 61.77 62.61 58.1 62.61C54.43 62.61 51.4201 59.63 51.4501 55.96C51.4801 52.26 54.47 49.28 58.1 49.31Z" fill="#5E281D"/>
<path d="M58.1101 49.31C61.7801 49.34 64.7601 52.29 64.7601 55.96C64.7601 59.63 61.7801 62.61 58.1101 62.61C54.4401 62.61 51.4301 59.63 51.4601 55.96C51.4901 52.26 54.4801 49.28 58.1101 49.31Z" fill="#5F281E"/>
<path d="M58.1101 49.32C61.7801 49.36 64.7601 52.3 64.7601 55.97C64.7601 59.64 61.7801 62.62 58.1101 62.62C54.4401 62.62 51.4301 59.64 51.4601 55.97C51.4901 52.27 54.4801 49.29 58.1101 49.32Z" fill="#5F291E"/>
<path d="M58.1201 49.32C61.7901 49.36 64.7701 52.3 64.7701 55.97C64.7701 59.64 61.7901 62.62 58.1201 62.62C54.4501 62.62 51.4401 59.64 51.4701 55.97C51.5001 52.27 54.4901 49.29 58.1201 49.32Z" fill="#60291E"/>
<path d="M58.1201 49.33C61.7901 49.37 64.7701 52.31 64.7701 55.98C64.7701 59.65 61.7901 62.63 58.1201 62.63C54.4501 62.63 51.4401 59.65 51.4701 55.98C51.5001 52.28 54.4901 49.3 58.1201 49.33Z" fill="#61291E"/>
<path d="M58.1201 49.33C61.7901 49.37 64.7701 52.31 64.7701 55.98C64.7701 59.65 61.7901 62.63 58.1201 62.63C54.4501 62.63 51.4401 59.65 51.4701 55.98C51.5001 52.28 54.4901 49.3 58.1201 49.33Z" fill="#612A1E"/>
<path d="M58.1301 49.34C61.8001 49.38 64.7801 52.32 64.7801 55.99C64.7801 59.66 61.8001 62.64 58.1301 62.64C54.4601 62.64 51.4501 59.66 51.4801 55.99C51.5101 52.29 54.5001 49.31 58.1301 49.34Z" fill="#622A1E"/>
<path d="M58.1301 49.35C61.8001 49.39 64.7801 52.33 64.7801 56C64.7801 59.67 61.8001 62.65 58.1301 62.65C54.4601 62.65 51.4501 59.67 51.4801 56C51.5101 52.3 54.5101 49.32 58.1301 49.35Z" fill="#632A1E"/>
<path d="M58.1401 49.35C61.8101 49.39 64.7901 52.33 64.7901 56C64.7901 59.67 61.8101 62.65 58.1401 62.65C54.4701 62.65 51.4601 59.67 51.4901 56C51.5301 52.3 54.5201 49.32 58.1401 49.35Z" fill="#632B1F"/>
<path d="M58.1401 49.36C61.8101 49.4 64.7901 52.34 64.7901 56.01C64.7901 59.68 61.8101 62.66 58.1401 62.66C54.4701 62.66 51.4601 59.68 51.4901 56.01C51.5301 52.31 54.5201 49.33 58.1401 49.36Z" fill="#642B1F"/>
<path d="M58.1501 49.36C61.8201 49.4 64.7901 52.34 64.7901 56C64.7901 59.66 61.8101 62.64 58.1501 62.64C54.4901 62.64 51.4701 59.66 51.5001 56C51.5401 52.3 54.5301 49.32 58.1501 49.36Z" fill="#642B1F"/>
<path d="M58.15 49.37C61.82 49.41 64.79 52.34 64.79 56.01C64.79 59.68 61.82 62.65 58.15 62.65C54.48 62.65 51.47 59.68 51.51 56.01C51.55 52.31 54.54 49.33 58.15 49.37Z" fill="#652C1F"/>
<path d="M58.15 49.37C61.82 49.41 64.79 52.34 64.79 56.01C64.79 59.68 61.82 62.65 58.15 62.65C54.48 62.65 51.47 59.68 51.51 56.01C51.55 52.31 54.54 49.33 58.15 49.37Z" fill="#662C1F"/>
<path d="M58.16 49.38C61.83 49.42 64.8 52.35 64.8 56.02C64.8 59.69 61.83 62.66 58.16 62.66C54.49 62.66 51.48 59.69 51.52 56.02C51.56 52.32 54.55 49.34 58.16 49.38Z" fill="#662C1F"/>
<path d="M58.16 49.39C61.83 49.43 64.8 52.36 64.8 56.03C64.8 59.7 61.83 62.67 58.16 62.67C54.49 62.67 51.48 59.7 51.52 56.03C51.56 52.33 54.55 49.35 58.16 49.39Z" fill="#672D1F"/>
<path d="M58.1701 49.39C61.8401 49.43 64.8101 52.36 64.8101 56.03C64.8101 59.7 61.8401 62.67 58.1701 62.67C54.5001 62.67 51.4901 59.7 51.5301 56.03C51.5701 52.33 54.5601 49.35 58.1701 49.39Z" fill="#682D1F"/>
<path d="M58.1701 49.4C61.8401 49.44 64.8101 52.37 64.8101 56.04C64.8101 59.71 61.8401 62.68 58.1701 62.68C54.5001 62.68 51.4901 59.71 51.5301 56.04C51.5701 52.34 54.5601 49.36 58.1701 49.4Z" fill="#682D20"/>
<path d="M58.1801 49.4C61.8501 49.44 64.8201 52.37 64.8201 56.04C64.8201 59.71 61.8501 62.68 58.1801 62.68C54.5101 62.68 51.5001 59.71 51.5401 56.04C51.5801 52.34 54.5701 49.36 58.1801 49.4Z" fill="#692E20"/>
<path d="M58.1801 49.41C61.8501 49.46 64.8201 52.38 64.8201 56.05C64.8201 59.72 61.8501 62.69 58.1801 62.69C54.5101 62.69 51.5001 59.72 51.5401 56.05C51.5801 52.35 54.5701 49.37 58.1801 49.41Z" fill="#692E20"/>
<path d="M58.1901 49.41C61.8601 49.46 64.8301 52.38 64.8301 56.05C64.8301 59.72 61.8601 62.69 58.1901 62.69C54.5201 62.69 51.5101 59.72 51.5501 56.05C51.5901 52.35 54.5801 49.37 58.1901 49.41Z" fill="#6A2E20"/>
<path d="M58.1901 49.42C61.8601 49.47 64.8301 52.39 64.8301 56.06C64.8301 59.73 61.8601 62.7 58.1901 62.7C54.5201 62.7 51.5101 59.73 51.5501 56.06C51.5901 52.36 54.5801 49.38 58.1901 49.42Z" fill="#6B2F20"/>
<path d="M58.1901 49.42C61.8501 49.47 64.8301 52.39 64.8301 56.06C64.8301 59.73 61.8601 62.7 58.1901 62.7C54.5201 62.7 51.5101 59.73 51.5501 56.06C51.5901 52.36 54.5801 49.38 58.1901 49.42Z" fill="#6B2F20"/>
<path d="M58.2001 49.43C61.8601 49.48 64.8401 52.4 64.8401 56.07C64.8401 59.74 61.8701 62.71 58.2001 62.71C54.5301 62.71 51.5201 59.74 51.5601 56.07C51.6001 52.37 54.5901 49.39 58.2001 49.43Z" fill="#6C2F20"/>
<path d="M58.2001 49.44C61.8601 49.49 64.8401 52.41 64.8401 56.08C64.8401 59.75 61.8701 62.72 58.2001 62.72C54.5301 62.72 51.5201 59.75 51.5601 56.08C51.6001 52.38 54.5901 49.4 58.2001 49.44Z" fill="#6D3020"/>
<path d="M58.2101 49.44C61.8701 49.49 64.8501 52.41 64.8501 56.08C64.8501 59.75 61.8801 62.72 58.2101 62.72C54.5401 62.72 51.5301 59.75 51.5701 56.08C51.6101 52.38 54.6001 49.4 58.2101 49.44Z" fill="#6D3020"/>
<path d="M58.2101 49.45C61.8701 49.5 64.8401 52.42 64.8401 56.09C64.8401 59.76 61.8701 62.73 58.2101 62.73C54.5501 62.73 51.5301 59.76 51.5701 56.09C51.6101 52.39 54.6001 49.41 58.2101 49.45Z" fill="#6E3021"/>
<path d="M58.2201 49.45C61.8801 49.5 64.8501 52.42 64.8501 56.08C64.8501 59.74 61.8801 62.71 58.2201 62.71C54.5601 62.71 51.5401 59.74 51.5901 56.08C51.6401 52.38 54.6301 49.4 58.2201 49.45Z" fill="#6F3121"/>
<path d="M58.2201 49.46C61.8801 49.51 64.8501 52.43 64.8501 56.09C64.8501 59.75 61.8801 62.72 58.2201 62.72C54.5601 62.72 51.5401 59.75 51.5901 56.09C51.6401 52.39 54.6301 49.41 58.2201 49.46Z" fill="#6F3121"/>
<path d="M58.2201 49.46C61.8801 49.51 64.8501 52.43 64.8501 56.09C64.8501 59.75 61.8801 62.72 58.2201 62.72C54.5601 62.72 51.5401 59.75 51.5901 56.09C51.6401 52.39 54.6301 49.41 58.2201 49.46Z" fill="#703121"/>
<path d="M58.2301 49.47C61.8901 49.52 64.8601 52.44 64.8601 56.1C64.8601 59.76 61.8901 62.73 58.2301 62.73C54.5701 62.73 51.5501 59.76 51.6001 56.1C51.6501 52.4 54.6401 49.42 58.2301 49.47Z" fill="#713221"/>
<path d="M58.2301 49.47C61.8901 49.52 64.8601 52.44 64.8601 56.1C64.8601 59.76 61.8901 62.73 58.2301 62.73C54.5701 62.73 51.5501 59.76 51.6001 56.1C51.6501 52.4 54.6401 49.42 58.2301 49.47Z" fill="#713221"/>
<path d="M58.24 49.48C61.9 49.53 64.87 52.45 64.87 56.11C64.87 59.77 61.9 62.74 58.24 62.74C54.58 62.74 51.56 59.77 51.61 56.11C51.66 52.41 54.65 49.43 58.24 49.48Z" fill="#723221"/>
<path d="M58.24 49.49C61.9 49.54 64.87 52.46 64.87 56.12C64.87 59.78 61.9 62.75 58.24 62.75C54.58 62.75 51.56 59.78 51.61 56.12C51.66 52.42 54.65 49.44 58.24 49.49Z" fill="#733321"/>
<path d="M58.25 49.49C61.91 49.54 64.88 52.46 64.88 56.12C64.88 59.78 61.91 62.75 58.25 62.75C54.59 62.75 51.57 59.78 51.62 56.12C51.67 52.42 54.66 49.44 58.25 49.49Z" fill="#733321"/>
<path d="M58.25 49.5C61.91 49.56 64.88 52.47 64.88 56.13C64.88 59.79 61.91 62.76 58.25 62.76C54.59 62.76 51.57 59.79 51.62 56.13C51.67 52.43 54.66 49.45 58.25 49.5Z" fill="#743321"/>
<path d="M58.26 49.5C61.92 49.56 64.89 52.47 64.89 56.13C64.89 59.79 61.92 62.76 58.26 62.76C54.6 62.76 51.58 59.79 51.63 56.13C51.68 52.43 54.67 49.45 58.26 49.5Z" fill="#753422"/>
<path d="M58.26 49.51C61.92 49.57 64.89 52.48 64.89 56.14C64.89 59.8 61.92 62.77 58.26 62.77C54.6 62.77 51.58 59.8 51.63 56.14C51.68 52.44 54.67 49.46 58.26 49.51Z" fill="#753422"/>
<path d="M58.26 49.51C61.92 49.57 64.89 52.48 64.89 56.14C64.89 59.8 61.92 62.77 58.26 62.77C54.6 62.77 51.58 59.8 51.63 56.14C51.68 52.44 54.67 49.46 58.26 49.51Z" fill="#763522"/>
<path d="M58.27 49.52C61.93 49.58 64.9 52.49 64.9 56.15C64.9 59.81 61.93 62.78 58.27 62.78C54.61 62.78 51.59 59.81 51.64 56.15C51.69 52.45 54.68 49.47 58.27 49.52Z" fill="#773522"/>
<path d="M58.27 49.52C61.93 49.58 64.9 52.49 64.9 56.15C64.9 59.81 61.93 62.78 58.27 62.78C54.61 62.78 51.59 59.81 51.64 56.15C51.69 52.45 54.68 49.47 58.27 49.52Z" fill="#773522"/>
<path d="M58.28 49.53C61.94 49.59 64.91 52.5 64.91 56.16C64.91 59.82 61.94 62.79 58.28 62.79C54.62 62.79 51.6 59.82 51.65 56.16C51.7 52.46 54.69 49.48 58.28 49.53Z" fill="#783622"/>
<path d="M58.2801 49.54C61.9401 49.6 64.9001 52.51 64.9001 56.16C64.9001 59.81 61.9301 62.78 58.2801 62.78C54.6301 62.78 51.6001 59.81 51.6601 56.16C51.7101 52.46 54.7001 49.48 58.2801 49.54Z" fill="#793622"/>
<path d="M58.2901 49.54C61.9501 49.6 64.9101 52.51 64.9101 56.16C64.9101 59.81 61.9401 62.78 58.2901 62.78C54.6401 62.78 51.6101 59.81 51.6701 56.16C51.7201 52.46 54.7101 49.48 58.2901 49.54Z" fill="#793622"/>
<path d="M58.2901 49.55C61.9501 49.61 64.9101 52.52 64.9101 56.17C64.9101 59.82 61.9401 62.79 58.2901 62.79C54.6401 62.79 51.6101 59.82 51.6701 56.17C51.7301 52.47 54.7101 49.49 58.2901 49.55Z" fill="#7A3722"/>
<path d="M58.2901 49.55C61.9501 49.61 64.9101 52.52 64.9101 56.17C64.9101 59.82 61.9401 62.79 58.2901 62.79C54.6401 62.79 51.6101 59.82 51.6701 56.17C51.7301 52.47 54.7101 49.49 58.2901 49.55Z" fill="#7B3722"/>
<path d="M58.3001 49.56C61.9601 49.62 64.9201 52.52 64.9201 56.18C64.9201 59.84 61.9601 62.8 58.3001 62.8C54.6401 62.8 51.6201 59.83 51.6801 56.18C51.7401 52.48 54.7201 49.5 58.3001 49.56Z" fill="#7B3723"/>
<path d="M58.3001 49.56C61.9601 49.62 64.9201 52.52 64.9201 56.18C64.9201 59.84 61.9601 62.8 58.3001 62.8C54.6401 62.8 51.6201 59.83 51.6801 56.18C51.7401 52.48 54.7301 49.5 58.3001 49.56Z" fill="#7C3823"/>
<path d="M58.3101 49.57C61.9701 49.63 64.9301 52.53 64.9301 56.19C64.9301 59.85 61.9701 62.81 58.3101 62.81C54.6501 62.81 51.6301 59.85 51.6901 56.19C51.7501 52.49 54.7401 49.51 58.3101 49.57Z" fill="#7D3823"/>
<path d="M58.3101 49.57C61.9601 49.63 64.9301 52.53 64.9301 56.19C64.9301 59.85 61.9701 62.81 58.3101 62.81C54.6501 62.81 51.6301 59.85 51.6901 56.19C51.7501 52.49 54.7401 49.51 58.3101 49.57Z" fill="#7E3823"/>
<path d="M58.3201 49.58C61.9701 49.64 64.9401 52.54 64.9401 56.2C64.9401 59.86 61.9801 62.82 58.3201 62.82C54.6601 62.82 51.6401 59.86 51.7001 56.2C51.7601 52.5 54.7501 49.52 58.3201 49.58Z" fill="#7E3923"/>
<path d="M58.3201 49.59C61.9701 49.66 64.9401 52.55 64.9401 56.21C64.9401 59.87 61.9801 62.83 58.3201 62.83C54.6601 62.83 51.6401 59.87 51.7001 56.21C51.7601 52.51 54.7501 49.53 58.3201 49.59Z" fill="#7F3923"/>
<path d="M58.3201 49.59C61.9701 49.66 64.9401 52.55 64.9401 56.21C64.9401 59.87 61.9801 62.83 58.3201 62.83C54.6601 62.83 51.6401 59.87 51.7001 56.21C51.7601 52.51 54.7501 49.53 58.3201 49.59Z" fill="#803923"/>
<path d="M58.3301 49.6C61.9801 49.67 64.9501 52.56 64.9501 56.22C64.9501 59.88 61.9901 62.84 58.3301 62.84C54.6701 62.84 51.6501 59.88 51.7101 56.22C51.7701 52.52 54.7601 49.54 58.3301 49.6Z" fill="#803A23"/>
<path d="M58.3301 49.6C61.9801 49.67 64.9501 52.56 64.9501 56.22C64.9501 59.88 61.9901 62.84 58.3301 62.84C54.6701 62.84 51.6501 59.88 51.7101 56.22C51.7701 52.52 54.7601 49.54 58.3301 49.6Z" fill="#813A23"/>
<path d="M58.34 49.61C61.99 49.68 64.96 52.57 64.96 56.23C64.96 59.89 62 62.85 58.34 62.85C54.68 62.85 51.66 59.89 51.72 56.23C51.78 52.53 54.77 49.55 58.34 49.61Z" fill="#823A23"/>
<path d="M58.34 49.61C61.99 49.68 64.96 52.57 64.96 56.23C64.96 59.89 62 62.85 58.34 62.85C54.68 62.85 51.66 59.89 51.72 56.23C51.78 52.53 54.77 49.55 58.34 49.61Z" fill="#823B23"/>
<path d="M58.35 49.62C62 49.69 64.96 52.58 64.96 56.23C64.96 59.88 62 62.84 58.35 62.84C54.7 62.84 51.67 59.88 51.73 56.23C51.79 52.53 54.78 49.55 58.35 49.62Z" fill="#833B23"/>
<path d="M58.3501 49.63C62.0001 49.7 64.9601 52.59 64.9601 56.24C64.9601 59.89 62.0001 62.85 58.3501 62.85C54.7001 62.85 51.6701 59.89 51.7401 56.24C51.8001 52.54 54.7901 49.56 58.3501 49.63Z" fill="#843B24"/>
<path d="M58.3601 49.63C62.0101 49.7 64.9701 52.59 64.9701 56.24C64.9701 59.89 62.0101 62.85 58.3601 62.85C54.7101 62.85 51.6801 59.89 51.7501 56.24C51.8101 52.54 54.8001 49.56 58.3601 49.63Z" fill="#853C24"/>
<path d="M58.3601 49.64C62.0101 49.71 64.9701 52.6 64.9701 56.25C64.9701 59.9 62.0101 62.86 58.3601 62.86C54.7101 62.86 51.6801 59.9 51.7501 56.25C51.8101 52.55 54.8001 49.57 58.3601 49.64Z" fill="#853C24"/>
<path d="M58.3601 49.64C62.0101 49.71 64.9701 52.6 64.9701 56.25C64.9701 59.9 62.0101 62.86 58.3601 62.86C54.7101 62.86 51.6801 59.9 51.7501 56.25C51.8101 52.55 54.8001 49.57 58.3601 49.64Z" fill="#863D24"/>
<path d="M58.3701 49.65C62.0201 49.72 64.9801 52.61 64.9801 56.26C64.9801 59.91 62.0201 62.87 58.3701 62.87C54.7201 62.87 51.6901 59.91 51.7601 56.26C51.8301 52.56 54.8101 49.58 58.3701 49.65Z" fill="#873D24"/>
<path d="M58.3701 49.65C62.0201 49.72 64.9801 52.61 64.9801 56.26C64.9801 59.91 62.0201 62.87 58.3701 62.87C54.7201 62.87 51.6901 59.91 51.7601 56.26C51.8301 52.56 54.8101 49.58 58.3701 49.65Z" fill="#883D24"/>
<path d="M58.38 49.66C62.03 49.73 64.99 52.62 64.99 56.27C64.99 59.92 62.03 62.88 58.38 62.88C54.73 62.88 51.7 59.92 51.77 56.27C51.84 52.57 54.82 49.59 58.38 49.66Z" fill="#883E24"/>
<path d="M58.38 49.66C62.03 49.73 64.99 52.62 64.99 56.27C64.99 59.92 62.03 62.88 58.38 62.88C54.73 62.88 51.7 59.92 51.77 56.27C51.84 52.57 54.82 49.59 58.38 49.66Z" fill="#893E24"/>
<path d="M58.39 49.67C62.04 49.74 65 52.63 65 56.28C65 59.93 62.04 62.89 58.39 62.89C54.74 62.89 51.71 59.93 51.78 56.28C51.85 52.58 54.84 49.6 58.39 49.67Z" fill="#8A3E24"/>
<path d="M58.3901 49.68C62.0401 49.76 65.0001 52.64 65.0001 56.29C65.0001 59.94 62.0401 62.9 58.3901 62.9C54.7401 62.9 51.7201 59.94 51.7801 56.29C51.8501 52.59 54.8401 49.61 58.3901 49.68Z" fill="#8A3F24"/>
<path d="M58.3901 49.68C62.0401 49.76 65.0001 52.64 65.0001 56.29C65.0001 59.94 62.0401 62.9 58.3901 62.9C54.7401 62.9 51.7201 59.94 51.7801 56.29C51.8501 52.59 54.8401 49.61 58.3901 49.68Z" fill="#8B3F24"/>
<path d="M58.4001 49.69C62.0501 49.77 65.0101 52.65 65.0101 56.3C65.0101 59.95 62.0501 62.91 58.4001 62.91C54.7501 62.91 51.7301 59.95 51.7901 56.3C51.8601 52.6 54.8501 49.62 58.4001 49.69Z" fill="#8C3F24"/>
<path d="M58.4001 49.69C62.0501 49.77 65.0101 52.65 65.0101 56.3C65.0101 59.95 62.0501 62.91 58.4001 62.91C54.7501 62.91 51.7301 59.95 51.7901 56.3C51.8601 52.6 54.8501 49.62 58.4001 49.69Z" fill="#8D4024"/>
<path d="M58.4101 49.7C62.0601 49.78 65.0201 52.66 65.0201 56.31C65.0201 59.96 62.0601 62.92 58.4101 62.92C54.7601 62.92 51.7401 59.96 51.8001 56.31C51.8701 52.61 54.8601 49.63 58.4101 49.7Z" fill="#8D4024"/>
<path d="M58.4101 49.7C62.0601 49.78 65.0101 52.66 65.0101 56.3C65.0101 59.94 62.0501 62.91 58.4101 62.91C54.7701 62.91 51.7401 59.95 51.8001 56.3C51.8701 52.6 54.8601 49.62 58.4101 49.7Z" fill="#8E4025"/>
<path d="M58.42 49.71C62.07 49.79 65.02 52.67 65.02 56.31C65.02 59.95 62.06 62.91 58.42 62.91C54.78 62.91 51.75 59.95 51.82 56.31C51.89 52.61 54.88 49.63 58.42 49.71Z" fill="#8F4125"/>
<path d="M58.42 49.71C62.07 49.79 65.02 52.67 65.02 56.31C65.02 59.95 62.06 62.91 58.42 62.91C54.78 62.91 51.75 59.95 51.82 56.31C51.89 52.61 54.88 49.63 58.42 49.71Z" fill="#904125"/>
<path d="M58.43 49.72C62.08 49.8 65.03 52.68 65.03 56.32C65.03 59.96 62.07 62.92 58.43 62.92C54.79 62.92 51.76 59.96 51.83 56.32C51.9 52.62 54.89 49.64 58.43 49.72Z" fill="#904125"/>
<path d="M58.43 49.73C62.07 49.81 65.03 52.69 65.03 56.33C65.03 59.97 62.07 62.93 58.43 62.93C54.79 62.93 51.76 59.97 51.83 56.33C51.9 52.63 54.89 49.65 58.43 49.73Z" fill="#914225"/>
<path d="M58.43 49.73C62.07 49.81 65.03 52.69 65.03 56.33C65.03 59.97 62.07 62.93 58.43 62.93C54.79 62.93 51.76 59.97 51.83 56.33C51.9 52.63 54.89 49.65 58.43 49.73Z" fill="#924225"/>
<path d="M58.4401 49.74C62.0801 49.82 65.0401 52.7 65.0401 56.34C65.0401 59.98 62.0801 62.94 58.4401 62.94C54.8001 62.94 51.7701 59.98 51.8401 56.34C51.9101 52.64 54.9001 49.66 58.4401 49.74Z" fill="#934325"/>
<path d="M58.4401 49.74C62.0801 49.82 65.0401 52.69 65.0401 56.34C65.0401 59.99 62.0901 62.94 58.4401 62.94C54.7901 62.94 51.7701 59.98 51.8401 56.34C51.9101 52.64 54.9001 49.66 58.4401 49.74Z" fill="#934325"/>
<path d="M58.4501 49.75C62.0901 49.83 65.0501 52.7 65.0501 56.35C65.0501 60 62.1001 62.95 58.4501 62.95C54.8001 62.95 51.7801 59.99 51.8501 56.35C51.9301 52.65 54.9101 49.67 58.4501 49.75Z" fill="#944325"/>
<path d="M58.4501 49.75C62.0901 49.83 65.0501 52.7 65.0501 56.35C65.0501 60 62.1001 62.95 58.4501 62.95C54.8001 62.95 51.7801 59.99 51.8501 56.35C51.9301 52.65 54.9101 49.67 58.4501 49.75Z" fill="#954425"/>
<path d="M58.4601 49.76C62.1001 49.84 65.0601 52.71 65.0601 56.36C65.0601 60.01 62.1101 62.96 58.4601 62.96C54.8101 62.96 51.7901 60 51.8601 56.36C51.9401 52.66 54.9201 49.68 58.4601 49.76Z" fill="#964425"/>
<path d="M58.4601 49.76C62.1001 49.85 65.0601 52.71 65.0601 56.36C65.0601 60.01 62.1101 62.96 58.4601 62.96C54.8101 62.96 51.7901 60.01 51.8601 56.36C51.9401 52.66 54.9201 49.68 58.4601 49.76Z" fill="#974425"/>
<path d="M58.4601 49.77C62.1001 49.86 65.0601 52.72 65.0601 56.37C65.0601 60.02 62.1101 62.97 58.4601 62.97C54.8101 62.97 51.7901 60.02 51.8601 56.37C51.9401 52.67 54.9201 49.69 58.4601 49.77Z" fill="#974525"/>
<path d="M58.4701 49.78C62.1101 49.87 65.0701 52.73 65.0701 56.38C65.0701 60.03 62.1201 62.98 58.4701 62.98C54.8201 62.98 51.8001 60.03 51.8701 56.38C51.9501 52.68 54.9301 49.7 58.4701 49.78Z" fill="#984525"/>
<path d="M58.4701 49.78C62.1101 49.87 65.0701 52.73 65.0701 56.38C65.0701 60.03 62.1201 62.98 58.4701 62.98C54.8201 62.98 51.8001 60.03 51.8701 56.38C51.9501 52.68 54.9401 49.7 58.4701 49.78Z" fill="#994525"/>
<path d="M58.4801 49.79C62.1201 49.88 65.0801 52.74 65.0801 56.39C65.0801 60.04 62.1301 62.99 58.4801 62.99C54.8301 62.99 51.8101 60.04 51.8801 56.39C51.9601 52.69 54.9501 49.71 58.4801 49.79Z" fill="#9A4625"/>
<path d="M58.4801 49.79C62.1201 49.88 65.0701 52.74 65.0701 56.38C65.0701 60.02 62.1201 62.97 58.4801 62.97C54.8401 62.97 51.8101 60.02 51.8901 56.38C51.9701 52.68 54.9601 49.7 58.4801 49.79Z" fill="#9A4625"/>
<path d="M58.49 49.8C62.13 49.89 65.08 52.75 65.08 56.39C65.08 60.03 62.13 62.98 58.49 62.98C54.85 62.98 51.82 60.03 51.9 56.39C51.98 52.69 54.97 49.71 58.49 49.8Z" fill="#9B4625"/>
<path d="M58.49 49.8C62.13 49.89 65.08 52.75 65.08 56.39C65.08 60.03 62.13 62.98 58.49 62.98C54.85 62.98 51.82 60.03 51.9 56.39C51.98 52.69 54.97 49.71 58.49 49.8Z" fill="#9C4725"/>
<path d="M58.5 49.81C62.14 49.9 65.09 52.76 65.09 56.4C65.09 60.04 62.14 62.99 58.5 62.99C54.86 62.99 51.83 60.04 51.91 56.4C51.99 52.7 54.98 49.72 58.5 49.81Z" fill="#9D4725"/>
<path d="M58.5 49.82C62.14 49.91 65.09 52.77 65.09 56.41C65.09 60.05 62.14 63 58.5 63C54.86 63 51.83 60.05 51.91 56.41C51.99 52.71 54.98 49.73 58.5 49.82Z" fill="#9D4725"/>
<path d="M58.5 49.82C62.14 49.91 65.09 52.77 65.09 56.41C65.09 60.05 62.14 63 58.5 63C54.86 63 51.83 60.05 51.91 56.41C51.99 52.71 54.98 49.73 58.5 49.82Z" fill="#9E4825"/>
<path d="M58.51 49.83C62.15 49.92 65.1 52.78 65.1 56.42C65.1 60.06 62.15 63.01 58.51 63.01C54.87 63.01 51.84 60.06 51.92 56.42C52 52.72 54.99 49.74 58.51 49.83Z" fill="#9F4825"/>
<path d="M58.51 49.83C62.15 49.92 65.1 52.78 65.1 56.42C65.1 60.06 62.15 63.01 58.51 63.01C54.87 63.01 51.84 60.06 51.92 56.42C52 52.72 54.99 49.74 58.51 49.83Z" fill="#A04925"/>
<path d="M58.52 49.84C62.16 49.93 65.11 52.79 65.11 56.43C65.11 60.07 62.16 63.02 58.52 63.02C54.88 63.02 51.85 60.07 51.93 56.43C52.01 52.73 55 49.75 58.52 49.84Z" fill="#A14925"/>
<path d="M58.52 49.84C62.16 49.93 65.11 52.79 65.11 56.43C65.11 60.07 62.16 63.02 58.52 63.02C54.88 63.02 51.85 60.07 51.93 56.43C52.01 52.73 55 49.75 58.52 49.84Z" fill="#A14925"/>
<path d="M58.53 49.85C62.17 49.94 65.12 52.8 65.12 56.44C65.12 60.08 62.17 63.03 58.53 63.03C54.89 63.03 51.86 60.08 51.94 56.44C52.03 52.74 55.01 49.76 58.53 49.85Z" fill="#A24A25"/>
<path d="M58.53 49.85C62.17 49.95 65.12 52.8 65.12 56.44C65.12 60.08 62.17 63.03 58.53 63.03C54.89 63.03 51.86 60.08 51.94 56.44C52.03 52.74 55.01 49.76 58.53 49.85Z" fill="#A34A25"/>
<path d="M58.53 49.86C62.17 49.96 65.12 52.81 65.12 56.45C65.12 60.09 62.17 63.04 58.53 63.04C54.89 63.04 51.86 60.09 51.94 56.45C52.03 52.75 55.01 49.77 58.53 49.86Z" fill="#A44A25"/>
<path d="M58.54 49.87C62.18 49.97 65.13 52.82 65.13 56.46C65.13 60.1 62.18 63.05 58.54 63.05C54.9 63.05 51.87 60.1 51.95 56.46C52.04 52.76 55.02 49.78 58.54 49.87Z" fill="#A44B25"/>
<path d="M58.54 49.87C62.18 49.97 65.13 52.82 65.13 56.46C65.13 60.1 62.18 63.05 58.54 63.05C54.9 63.05 51.87 60.1 51.95 56.46C52.04 52.76 55.02 49.78 58.54 49.87Z" fill="#A54B25"/>
<path d="M58.55 49.88C62.19 49.98 65.13 52.83 65.13 56.46C65.13 60.09 62.18 63.04 58.55 63.04C54.92 63.04 51.88 60.09 51.96 56.46C52.05 52.76 55.03 49.78 58.55 49.88Z" fill="#A64B25"/>
<path d="M58.5501 49.88C62.1801 49.98 65.1301 52.83 65.1301 56.46C65.1301 60.09 62.1801 63.04 58.5501 63.04C54.9201 63.04 51.8801 60.09 51.9701 56.46C52.0601 52.76 55.0401 49.78 58.5501 49.88Z" fill="#A74C25"/>
<path d="M58.5601 49.89C62.1901 49.99 65.1401 52.84 65.1401 56.47C65.1401 60.1 62.1901 63.05 58.5601 63.05C54.9301 63.05 51.8901 60.1 51.9801 56.47C52.0701 52.77 55.0601 49.79 58.5601 49.89Z" fill="#A74C25"/>
<path d="M58.5601 49.89C62.1901 49.99 65.1401 52.84 65.1401 56.47C65.1401 60.1 62.1901 63.05 58.5601 63.05C54.9301 63.05 51.8901 60.1 51.9801 56.47C52.0701 52.77 55.0601 49.79 58.5601 49.89Z" fill="#A84C25"/>
<path d="M58.5601 49.9C62.1901 50 65.1401 52.85 65.1401 56.48C65.1401 60.11 62.1901 63.06 58.5601 63.06C54.9301 63.06 51.8901 60.11 51.9801 56.48C52.0701 52.78 55.0601 49.8 58.5601 49.9Z" fill="#A94D25"/>
<path d="M58.57 49.9C62.2 50 65.15 52.85 65.15 56.48C65.15 60.11 62.2 63.06 58.57 63.06C54.94 63.06 51.9 60.11 51.99 56.48C52.08 52.78 55.07 49.8 58.57 49.9Z" fill="#AA4D25"/>
<path d="M58.57 49.91C62.2 50.01 65.15 52.86 65.15 56.49C65.15 60.12 62.2 63.07 58.57 63.07C54.94 63.07 51.9 60.12 51.99 56.49C52.08 52.79 55.07 49.81 58.57 49.91Z" fill="#AB4D25"/>
<path d="M58.58 49.92C62.21 50.02 65.16 52.87 65.16 56.5C65.16 60.13 62.21 63.08 58.58 63.08C54.95 63.08 51.91 60.13 52 56.5C52.09 52.8 55.08 49.82 58.58 49.92Z" fill="#AB4E25"/>
<path d="M58.58 49.92C62.21 50.02 65.16 52.87 65.16 56.5C65.16 60.13 62.21 63.08 58.58 63.08C54.95 63.08 51.91 60.13 52 56.5C52.09 52.8 55.08 49.82 58.58 49.92Z" fill="#AC4E25"/>
<path d="M58.59 49.93C62.22 50.03 65.17 52.88 65.17 56.51C65.17 60.14 62.22 63.09 58.59 63.09C54.96 63.09 51.92 60.14 52.01 56.51C52.1 52.81 55.09 49.83 58.59 49.93Z" fill="#AD4F25"/>
<path d="M58.59 49.93C62.22 50.03 65.17 52.87 65.17 56.51C65.17 60.15 62.23 63.09 58.59 63.09C54.95 63.09 51.92 60.14 52.01 56.51C52.1 52.81 55.09 49.83 58.59 49.93Z" fill="#AE4F25"/>
<path d="M58.6 49.94C62.23 50.04 65.18 52.88 65.18 56.52C65.18 60.16 62.24 63.1 58.6 63.1C54.96 63.1 51.93 60.15 52.02 56.52C52.11 52.82 55.1 49.84 58.6 49.94Z" fill="#AF4F25"/>
<path d="M58.6 49.94C62.23 50.05 65.18 52.88 65.18 56.52C65.18 60.16 62.24 63.1 58.6 63.1C54.96 63.1 51.93 60.15 52.02 56.52C52.12 52.82 55.1 49.84 58.6 49.94Z" fill="#AF5025"/>
<path d="M58.6 49.95C62.23 50.06 65.18 52.89 65.18 56.53C65.18 60.17 62.24 63.11 58.6 63.11C54.96 63.11 51.93 60.16 52.02 56.53C52.12 52.83 55.1 49.85 58.6 49.95Z" fill="#B05025"/>
<path d="M58.61 49.95C62.24 50.06 65.19 52.89 65.19 56.53C65.19 60.17 62.25 63.11 58.61 63.11C54.97 63.11 51.94 60.16 52.03 56.53C52.13 52.83 55.11 49.85 58.61 49.95Z" fill="#B15025"/>
<path d="M58.61 49.96C62.24 50.07 65.18 52.9 65.18 56.53C65.18 60.16 62.24 63.11 58.61 63.11C54.98 63.11 51.94 60.16 52.03 56.53C52.13 52.83 55.11 49.85 58.61 49.96Z" fill="#B25125"/>
<path d="M58.62 49.97C62.25 50.08 65.19 52.91 65.19 56.54C65.19 60.17 62.25 63.11 58.62 63.11C54.99 63.11 51.95 60.17 52.05 56.54C52.15 52.84 55.13 49.86 58.62 49.97Z" fill="#B35125"/>
<path d="M58.62 49.97C62.25 50.08 65.19 52.91 65.19 56.54C65.19 60.17 62.25 63.11 58.62 63.11C54.99 63.11 51.95 60.17 52.05 56.54C52.15 52.84 55.13 49.86 58.62 49.97Z" fill="#B35125"/>
<path d="M58.63 49.98C62.26 50.09 65.2 52.92 65.2 56.55C65.2 60.18 62.26 63.12 58.63 63.12C55 63.12 51.96 60.18 52.06 56.55C52.16 52.85 55.14 49.87 58.63 49.98Z" fill="#B45225"/>
<path d="M58.63 49.98C62.26 50.09 65.2 52.92 65.2 56.55C65.2 60.18 62.26 63.12 58.63 63.12C55 63.12 51.96 60.18 52.06 56.55C52.16 52.85 55.14 49.87 58.63 49.98Z" fill="#B55225"/>
<path d="M58.63 49.99C62.26 50.1 65.2 52.93 65.2 56.56C65.2 60.19 62.26 63.13 58.63 63.13C55 63.13 51.96 60.19 52.06 56.56C52.16 52.86 55.14 49.88 58.63 49.99Z" fill="#B65325"/>
<path d="M58.64 49.99C62.27 50.1 65.21 52.93 65.21 56.56C65.21 60.19 62.27 63.13 58.64 63.13C55.01 63.13 51.97 60.19 52.07 56.56C52.17 52.86 55.15 49.88 58.64 49.99Z" fill="#B75325"/>
<path d="M58.64 50C62.27 50.11 65.21 52.94 65.21 56.57C65.21 60.2 62.27 63.14 58.64 63.14C55.01 63.14 51.97 60.2 52.07 56.57C52.17 52.87 55.16 49.89 58.64 50Z" fill="#B75325"/>
<path d="M58.65 50C62.28 50.11 65.22 52.94 65.22 56.57C65.22 60.2 62.28 63.14 58.65 63.14C55.02 63.14 51.98 60.2 52.08 56.57C52.18 52.87 55.17 49.89 58.65 50Z" fill="#B85425"/>
<path d="M58.65 50.01C62.28 50.12 65.22 52.95 65.22 56.58C65.22 60.21 62.28 63.15 58.65 63.15C55.02 63.15 51.98 60.21 52.08 56.58C52.18 52.88 55.17 49.9 58.65 50.01Z" fill="#B95425"/>
<path d="M58.66 50.02C62.29 50.13 65.23 52.96 65.23 56.59C65.23 60.22 62.29 63.16 58.66 63.16C55.03 63.16 51.99 60.22 52.09 56.59C52.19 52.89 55.18 49.91 58.66 50.02Z" fill="#BA5425"/>
<path d="M58.66 50.02C62.29 50.13 65.23 52.96 65.23 56.59C65.23 60.22 62.29 63.16 58.66 63.16C55.03 63.16 51.99 60.22 52.09 56.59C52.19 52.89 55.18 49.91 58.66 50.02Z" fill="#BB5525"/>
<path d="M58.6701 50.03C62.3001 50.14 65.2401 52.97 65.2401 56.6C65.2401 60.23 62.3001 63.17 58.6701 63.17C55.0401 63.17 52.0001 60.23 52.1001 56.6C52.2001 52.9 55.1901 49.92 58.6701 50.03Z" fill="#BB5525"/>
<path d="M58.6701 50.03C62.2901 50.15 65.2401 52.97 65.2401 56.6C65.2401 60.23 62.3001 63.17 58.6701 63.17C55.0401 63.17 52.0001 60.23 52.1001 56.6C52.2001 52.9 55.1901 49.92 58.6701 50.03Z" fill="#BC5525"/>
<path d="M58.6701 50.04C62.2901 50.16 65.2401 52.98 65.2401 56.61C65.2401 60.24 62.3001 63.18 58.6701 63.18C55.0401 63.18 52.0001 60.24 52.1001 56.61C52.2001 52.91 55.1901 49.93 58.6701 50.04Z" fill="#BD5625"/>
<path d="M58.6801 50.04C62.3001 50.16 65.2401 52.98 65.2401 56.61C65.2401 60.24 62.3001 63.18 58.6801 63.18C55.0601 63.18 52.0101 60.24 52.1101 56.61C52.2201 52.91 55.2001 49.93 58.6801 50.04Z" fill="#BE5625"/>
<path d="M58.6801 50.05C62.3001 50.17 65.2401 52.99 65.2401 56.61C65.2401 60.23 62.3001 63.17 58.6801 63.17C55.0601 63.17 52.0101 60.23 52.1201 56.61C52.2301 52.91 55.2101 49.93 58.6801 50.05Z" fill="#BF5725"/>
<path d="M58.6901 50.06C62.3101 50.18 65.2501 53 65.2501 56.62C65.2501 60.24 62.3101 63.18 58.6901 63.18C55.0701 63.18 52.0201 60.24 52.1301 56.62C52.2401 52.92 55.2201 49.94 58.6901 50.06Z" fill="#BF5725"/>
<path d="M58.6901 50.06C62.3101 50.18 65.2501 53 65.2501 56.62C65.2501 60.24 62.3101 63.18 58.6901 63.18C55.0701 63.18 52.0201 60.24 52.1301 56.62C52.2401 52.92 55.2201 49.94 58.6901 50.06Z" fill="#C05725"/>
<path d="M58.7001 50.07C62.3201 50.19 65.2601 53.01 65.2601 56.63C65.2601 60.25 62.3201 63.19 58.7001 63.19C55.0801 63.19 52.0301 60.25 52.1401 56.63C52.2501 52.93 55.2301 49.95 58.7001 50.07Z" fill="#C15825"/>
<path d="M58.7001 50.07C62.3201 50.19 65.2601 53.01 65.2601 56.63C65.2601 60.25 62.3201 63.19 58.7001 63.19C55.0801 63.19 52.0301 60.25 52.1401 56.63C52.2501 52.93 55.2301 49.95 58.7001 50.07Z" fill="#C25825"/>
<path d="M58.7001 50.08C62.3201 50.2 65.2601 53.02 65.2601 56.64C65.2601 60.26 62.3201 63.2 58.7001 63.2C55.0801 63.2 52.0301 60.26 52.1401 56.64C52.2501 52.94 55.2301 49.96 58.7001 50.08Z" fill="#C35825"/>
<path d="M58.7101 50.08C62.3301 50.2 65.2701 53.02 65.2701 56.64C65.2701 60.26 62.3301 63.2 58.7101 63.2C55.0901 63.2 52.0401 60.26 52.1501 56.64C52.2601 52.94 55.2401 49.96 58.7101 50.08Z" fill="#C45925"/>
<path d="M58.7101 50.09C62.3301 50.21 65.2701 53.03 65.2701 56.65C65.2701 60.27 62.3301 63.21 58.7101 63.21C55.0901 63.21 52.0401 60.27 52.1501 56.65C52.2601 52.95 55.2401 49.97 58.7101 50.09Z" fill="#C45925"/>
<path d="M58.72 50.09C62.34 50.21 65.28 53.03 65.28 56.65C65.28 60.27 62.34 63.21 58.72 63.21C55.1 63.21 52.05 60.27 52.16 56.65C52.27 52.95 55.25 49.97 58.72 50.09Z" fill="#C55925"/>
<path d="M58.72 50.1C62.34 50.22 65.28 53.04 65.28 56.66C65.28 60.28 62.34 63.22 58.72 63.22C55.1 63.22 52.05 60.28 52.16 56.66C52.27 52.96 55.25 49.98 58.72 50.1Z" fill="#C65A25"/>
<path d="M58.73 50.11C62.35 50.23 65.29 53.05 65.29 56.67C65.29 60.29 62.35 63.23 58.73 63.23C55.11 63.23 52.06 60.29 52.17 56.67C52.28 52.97 55.27 49.99 58.73 50.11Z" fill="#C75A25"/>
<path d="M58.73 50.11C62.35 50.23 65.29 53.05 65.29 56.67C65.29 60.29 62.35 63.23 58.73 63.23C55.11 63.23 52.06 60.29 52.17 56.67C52.28 52.96 55.27 49.99 58.73 50.11Z" fill="#C85B25"/>
<path d="M58.73 50.12C62.35 50.24 65.29 53.06 65.29 56.68C65.29 60.3 62.35 63.24 58.73 63.24C55.11 63.24 52.06 60.3 52.17 56.68C52.28 52.97 55.27 50 58.73 50.12Z" fill="#C95B24"/>
<path d="M65.3 56.68C65.3 60.3 62.37 63.24 58.74 63.24C55.11 63.24 52.07 60.3 52.18 56.68C52.29 52.97 55.28 50 58.74 50.12C62.36 50.25 65.3 53.05 65.3 56.68Z" fill="#CA5B24"/>
<path d="M58.74 50.13C62.36 50.25 65.3 53.06 65.3 56.69C65.3 60.32 62.37 63.25 58.74 63.25C55.11 63.25 52.07 60.31 52.18 56.69C52.29 52.99 55.28 50.02 58.74 50.13Z" fill="#CA5C25"/>
<path opacity="0.99" d="M58.75 50.13C62.37 50.25 65.31 53.06 65.31 56.69C65.31 60.32 62.38 63.25 58.75 63.25C55.12 63.25 52.08 60.31 52.19 56.69C52.3 52.99 55.28 50.02 58.75 50.13Z" fill="#CA5D25"/>
<path opacity="0.99" d="M58.75 50.13C62.37 50.25 65.31 53.06 65.31 56.69C65.31 60.32 62.38 63.25 58.75 63.25C55.12 63.25 52.08 60.31 52.19 56.69C52.3 52.99 55.28 50.02 58.75 50.13Z" fill="#CA5D26"/>
<path opacity="0.98" d="M58.75 50.13C62.37 50.25 65.31 53.06 65.31 56.69C65.31 60.32 62.38 63.25 58.75 63.25C55.12 63.25 52.09 60.31 52.19 56.69C52.3 52.99 55.28 50.02 58.75 50.13Z" fill="#CA5E26"/>
<path opacity="0.98" d="M58.75 50.14C62.37 50.26 65.31 53.07 65.31 56.7C65.31 60.33 62.38 63.26 58.75 63.26C55.12 63.26 52.09 60.32 52.19 56.7C52.3 53 55.28 50.03 58.75 50.14Z" fill="#CB5F27"/>
<path opacity="0.97" d="M58.76 50.14C62.38 50.26 65.32 53.07 65.32 56.7C65.32 60.33 62.39 63.26 58.76 63.26C55.13 63.26 52.1 60.32 52.2 56.7C52.31 53 55.29 50.03 58.76 50.14Z" fill="#CB6028"/>
<path opacity="0.97" d="M58.76 50.14C62.38 50.26 65.32 53.07 65.32 56.7C65.32 60.33 62.39 63.26 58.76 63.26C55.13 63.26 52.1 60.32 52.2 56.7C52.31 53 55.29 50.03 58.76 50.14Z" fill="#CB6028"/>
<path opacity="0.96" d="M58.76 50.15C62.38 50.27 65.32 53.08 65.32 56.71C65.32 60.34 62.39 63.27 58.76 63.27C55.13 63.27 52.1 60.33 52.2 56.71C52.31 53.01 55.29 50.04 58.76 50.15Z" fill="#CB6129"/>
<path opacity="0.96" d="M58.77 50.15C62.39 50.27 65.3301 53.08 65.3301 56.71C65.3301 60.34 62.4 63.27 58.77 63.27C55.14 63.27 52.11 60.33 52.21 56.71C52.32 53.01 55.3 50.04 58.77 50.15Z" fill="#CC622A"/>
<path opacity="0.95" d="M58.77 50.15C62.39 50.27 65.3301 53.08 65.3301 56.71C65.3301 60.34 62.4 63.27 58.77 63.27C55.14 63.27 52.11 60.33 52.21 56.71C52.32 53.01 55.3 50.04 58.77 50.15Z" fill="#CC632A"/>
<path opacity="0.95" d="M58.77 50.16C62.39 50.28 65.3301 53.09 65.3301 56.72C65.3301 60.35 62.4 63.28 58.77 63.28C55.14 63.28 52.11 60.34 52.21 56.72C52.32 53.02 55.3 50.05 58.77 50.16Z" fill="#CC632B"/>
<path opacity="0.94" d="M58.7801 50.16C62.4001 50.28 65.3401 53.09 65.3401 56.72C65.3401 60.35 62.4101 63.28 58.7801 63.28C55.1501 63.28 52.1201 60.34 52.2201 56.72C52.3301 53.02 55.3101 50.05 58.7801 50.16Z" fill="#CC642C"/>
<path opacity="0.94" d="M58.7801 50.16C62.4001 50.28 65.3401 53.09 65.3401 56.72C65.3401 60.35 62.4101 63.28 58.7801 63.28C55.1501 63.28 52.1201 60.34 52.2201 56.72C52.3301 53.02 55.3101 50.05 58.7801 50.16Z" fill="#CC652C"/>
<path opacity="0.93" d="M58.7801 50.17C62.4001 50.29 65.3401 53.1 65.3401 56.73C65.3401 60.36 62.4101 63.29 58.7801 63.29C55.1501 63.29 52.1201 60.35 52.2201 56.73C52.3301 53.03 55.3101 50.06 58.7801 50.17Z" fill="#CD652D"/>
<path opacity="0.93" d="M58.7901 50.17C62.4101 50.29 65.3501 53.1 65.3501 56.73C65.3501 60.36 62.4201 63.29 58.7901 63.29C55.1601 63.29 52.1301 60.35 52.2301 56.73C52.3301 53.03 55.3101 50.06 58.7901 50.17Z" fill="#CD662E"/>
<path opacity="0.92" d="M58.7901 50.17C62.4101 50.29 65.3501 53.1 65.3501 56.73C65.3501 60.36 62.4201 63.29 58.7901 63.29C55.1601 63.29 52.1301 60.35 52.2301 56.73C52.3301 53.03 55.3101 50.06 58.7901 50.17Z" fill="#CD672F"/>
<path opacity="0.92" d="M58.7901 50.18C62.4101 50.29 65.3501 53.11 65.3501 56.74C65.3501 60.37 62.4201 63.3 58.7901 63.3C55.1601 63.3 52.1301 60.36 52.2301 56.74C52.3301 53.04 55.3101 50.07 58.7901 50.18Z" fill="#CD6730"/>
<path opacity="0.91" d="M58.7901 50.18C62.4101 50.29 65.3501 53.11 65.3501 56.74C65.3501 60.37 62.4201 63.3 58.7901 63.3C55.1601 63.3 52.1301 60.36 52.2301 56.74C52.3301 53.04 55.3101 50.08 58.7901 50.18Z" fill="#CD6830"/>
<path opacity="0.91" d="M58.8001 50.18C62.4201 50.29 65.3601 53.11 65.3601 56.74C65.3601 60.37 62.4301 63.3 58.8001 63.3C55.1701 63.3 52.1401 60.36 52.2401 56.74C52.3401 53.04 55.3201 50.08 58.8001 50.18Z" fill="#CE6931"/>
<path opacity="0.9" d="M58.8001 50.19C62.4201 50.3 65.3601 53.12 65.3601 56.75C65.3601 60.38 62.4301 63.31 58.8001 63.31C55.1701 63.31 52.1401 60.37 52.2401 56.75C52.3401 53.05 55.3201 50.09 58.8001 50.19Z" fill="#CE6A32"/>
<path opacity="0.9" d="M58.8001 50.19C62.4201 50.3 65.3601 53.12 65.3601 56.75C65.3601 60.38 62.4301 63.31 58.8001 63.31C55.1701 63.31 52.1401 60.37 52.2401 56.75C52.3401 53.05 55.3201 50.09 58.8001 50.19Z" fill="#CE6A33"/>
<path opacity="0.89" d="M58.81 50.19C62.43 50.3 65.37 53.12 65.37 56.75C65.37 60.38 62.44 63.31 58.81 63.31C55.18 63.31 52.16 60.37 52.25 56.75C52.35 53.05 55.33 50.09 58.81 50.19Z" fill="#CE6B33"/>
<path opacity="0.89" d="M58.81 50.2C62.43 50.31 65.37 53.13 65.37 56.76C65.37 60.39 62.44 63.32 58.81 63.32C55.18 63.32 52.16 60.38 52.25 56.76C52.35 53.06 55.33 50.1 58.81 50.2Z" fill="#CF6C34"/>
<path opacity="0.88" d="M58.81 50.2C62.43 50.31 65.37 53.13 65.37 56.76C65.37 60.39 62.44 63.32 58.81 63.32C55.18 63.32 52.16 60.38 52.25 56.76C52.35 53.06 55.33 50.1 58.81 50.2Z" fill="#CF6C35"/>
<path opacity="0.88" d="M58.82 50.2C62.44 50.31 65.38 53.13 65.38 56.76C65.38 60.39 62.45 63.32 58.82 63.32C55.19 63.32 52.17 60.38 52.26 56.76C52.36 53.07 55.34 50.1 58.82 50.2Z" fill="#CF6D36"/>
<path opacity="0.87" d="M58.82 50.21C62.44 50.32 65.38 53.14 65.38 56.77C65.38 60.4 62.45 63.33 58.82 63.33C55.19 63.33 52.17 60.39 52.26 56.77C52.36 53.08 55.34 50.11 58.82 50.21Z" fill="#CF6E37"/>
<path opacity="0.87" d="M58.82 50.21C62.44 50.32 65.38 53.14 65.38 56.77C65.38 60.4 62.45 63.33 58.82 63.33C55.19 63.33 52.17 60.39 52.26 56.77C52.36 53.08 55.33 50.11 58.82 50.21Z" fill="#CF6E37"/>
<path opacity="0.86" d="M58.83 50.21C62.45 50.32 65.39 53.14 65.39 56.77C65.39 60.4 62.46 63.33 58.83 63.33C55.2 63.33 52.18 60.39 52.27 56.77C52.37 53.08 55.34 50.11 58.83 50.21Z" fill="#D06F38"/>
<path opacity="0.86" d="M58.83 50.22C62.45 50.33 65.39 53.15 65.39 56.78C65.39 60.41 62.46 63.34 58.83 63.34C55.2 63.34 52.18 60.4 52.27 56.78C52.37 53.09 55.34 50.12 58.83 50.22Z" fill="#D07039"/>
<path opacity="0.85" d="M58.83 50.22C62.45 50.33 65.39 53.15 65.39 56.78C65.39 60.41 62.46 63.34 58.83 63.34C55.2 63.34 52.18 60.4 52.27 56.78C52.37 53.09 55.34 50.12 58.83 50.22Z" fill="#D0703A"/>
<path opacity="0.85" d="M58.83 50.22C62.45 50.33 65.39 53.15 65.39 56.78C65.39 60.41 62.46 63.34 58.83 63.34C55.2 63.34 52.18 60.4 52.27 56.78C52.37 53.09 55.34 50.12 58.83 50.22Z" fill="#D0713B"/>
<path opacity="0.84" d="M58.84 50.23C62.46 50.34 65.4 53.16 65.4 56.79C65.4 60.42 62.47 63.35 58.84 63.35C55.21 63.35 52.19 60.41 52.28 56.79C52.38 53.1 55.35 50.13 58.84 50.23Z" fill="#D0723C"/>
<path opacity="0.84" d="M58.84 50.23C62.46 50.33 65.4 53.16 65.4 56.79C65.4 60.42 62.47 63.35 58.84 63.35C55.21 63.35 52.19 60.41 52.28 56.79C52.37 53.1 55.35 50.13 58.84 50.23Z" fill="#D1723D"/>
<path opacity="0.83" d="M58.84 50.23C62.46 50.33 65.4 53.16 65.4 56.79C65.4 60.42 62.47 63.35 58.84 63.35C55.21 63.35 52.19 60.41 52.28 56.79C52.37 53.1 55.35 50.13 58.84 50.23Z" fill="#D1733D"/>
<path opacity="0.83" d="M58.85 50.23C62.47 50.33 65.41 53.16 65.41 56.79C65.41 60.42 62.48 63.35 58.85 63.35C55.22 63.35 52.2 60.41 52.29 56.79C52.38 53.1 55.36 50.14 58.85 50.23Z" fill="#D1743E"/>
<path opacity="0.82" d="M58.85 50.24C62.47 50.34 65.41 53.17 65.41 56.8C65.41 60.43 62.48 63.36 58.85 63.36C55.22 63.36 52.2 60.42 52.29 56.8C52.38 53.11 55.36 50.15 58.85 50.24Z" fill="#D1743F"/>
<path opacity="0.82" d="M58.85 50.24C62.47 50.34 65.41 53.17 65.41 56.8C65.41 60.43 62.48 63.36 58.85 63.36C55.22 63.36 52.2 60.42 52.29 56.8C52.38 53.11 55.36 50.15 58.85 50.24Z" fill="#D27540"/>
<path opacity="0.81" d="M58.8601 50.24C62.4801 50.34 65.4201 53.17 65.4201 56.8C65.4201 60.43 62.4901 63.36 58.8601 63.36C55.2301 63.36 52.2101 60.42 52.3001 56.8C52.3901 53.11 55.3701 50.15 58.8601 50.24Z" fill="#D27641"/>
<path opacity="0.81" d="M58.8601 50.25C62.4801 50.35 65.4201 53.18 65.4201 56.81C65.4201 60.44 62.4901 63.37 58.8601 63.37C55.2301 63.37 52.2101 60.43 52.3001 56.81C52.3901 53.12 55.3701 50.16 58.8601 50.25Z" fill="#D27642"/>
<path opacity="0.8" d="M58.86 50.25C62.48 50.35 65.42 53.18 65.42 56.81C65.42 60.44 62.49 63.37 58.86 63.37C55.23 63.37 52.22 60.43 52.3 56.81C52.39 53.12 55.36 50.16 58.86 50.25Z" fill="#D27743"/>
<path opacity="0.8" d="M58.86 50.25C62.48 50.35 65.42 53.18 65.42 56.81C65.42 60.44 62.49 63.37 58.86 63.37C55.23 63.37 52.22 60.43 52.3 56.81C52.39 53.12 55.36 50.16 58.86 50.25Z" fill="#D27844"/>
<path opacity="0.79" d="M58.87 50.26C62.49 50.36 65.43 53.19 65.43 56.82C65.43 60.45 62.5 63.38 58.87 63.38C55.24 63.38 52.23 60.44 52.31 56.82C52.4 53.13 55.37 50.17 58.87 50.26Z" fill="#D37845"/>
<path opacity="0.79" d="M58.87 50.26C62.49 50.36 65.43 53.19 65.43 56.82C65.43 60.45 62.5 63.38 58.87 63.38C55.24 63.38 52.23 60.44 52.31 56.82C52.4 53.13 55.37 50.17 58.87 50.26Z" fill="#D37946"/>
<path opacity="0.78" d="M58.87 50.26C62.49 50.36 65.43 53.19 65.43 56.82C65.43 60.45 62.5 63.38 58.87 63.38C55.24 63.38 52.23 60.44 52.31 56.82C52.4 53.13 55.37 50.17 58.87 50.26Z" fill="#D37A47"/>
<path opacity="0.78" d="M58.88 50.27C62.5 50.37 65.44 53.2 65.44 56.83C65.44 60.46 62.51 63.39 58.88 63.39C55.25 63.39 52.24 60.45 52.32 56.83C52.41 53.14 55.38 50.18 58.88 50.27Z" fill="#D37A48"/>
<path opacity="0.77" d="M58.88 50.27C62.5 50.37 65.44 53.2 65.44 56.83C65.44 60.46 62.51 63.39 58.88 63.39C55.25 63.39 52.24 60.45 52.32 56.83C52.41 53.14 55.38 50.18 58.88 50.27Z" fill="#D47B49"/>
<path opacity="0.77" d="M58.88 50.27C62.5 50.37 65.44 53.2 65.44 56.83C65.44 60.46 62.51 63.39 58.88 63.39C55.25 63.39 52.24 60.45 52.32 56.83C52.41 53.14 55.38 50.18 58.88 50.27Z" fill="#D47C4A"/>
<path opacity="0.76" d="M58.89 50.28C62.51 50.38 65.45 53.21 65.45 56.84C65.45 60.47 62.52 63.4 58.89 63.4C55.26 63.4 52.2501 60.46 52.3301 56.84C52.4201 53.16 55.39 50.19 58.89 50.28Z" fill="#D47D4A"/>
<path opacity="0.76" d="M58.89 50.28C62.51 50.37 65.45 53.21 65.45 56.84C65.45 60.47 62.52 63.4 58.89 63.4C55.26 63.4 52.2501 60.46 52.3301 56.84C52.4201 53.16 55.39 50.19 58.89 50.28Z" fill="#D47D4B"/>
<path opacity="0.75" d="M58.89 50.28C62.51 50.37 65.45 53.21 65.45 56.84C65.45 60.47 62.52 63.4 58.89 63.4C55.26 63.4 52.2501 60.46 52.3301 56.84C52.4101 53.16 55.39 50.19 58.89 50.28Z" fill="#D47E4C"/>
<path opacity="0.75" d="M58.9001 50.29C62.5201 50.38 65.4601 53.22 65.4601 56.85C65.4601 60.48 62.5301 63.41 58.9001 63.41C55.2701 63.41 52.2601 60.47 52.3401 56.85C52.4201 53.17 55.4001 50.2 58.9001 50.29Z" fill="#D57F4D"/>
<path opacity="0.74" d="M58.9001 50.29C62.5201 50.38 65.4601 53.22 65.4601 56.85C65.4601 60.48 62.5301 63.41 58.9001 63.41C55.2701 63.41 52.2601 60.47 52.3401 56.85C52.4201 53.17 55.3901 50.21 58.9001 50.29Z" fill="#D57F4E"/>
<path opacity="0.74" d="M58.9001 50.29C62.5201 50.38 65.4601 53.22 65.4601 56.85C65.4601 60.48 62.5301 63.41 58.9001 63.41C55.2701 63.41 52.2601 60.47 52.3401 56.85C52.4201 53.17 55.3901 50.21 58.9001 50.29Z" fill="#D5804F"/>
<path opacity="0.73" d="M58.9001 50.3C62.5201 50.39 65.4601 53.23 65.4601 56.86C65.4601 60.49 62.5301 63.42 58.9001 63.42C55.2701 63.42 52.2601 60.48 52.3401 56.86C52.4201 53.18 55.3901 50.22 58.9001 50.3Z" fill="#D58150"/>
<path opacity="0.73" d="M58.9101 50.3C62.5301 50.39 65.4701 53.23 65.4701 56.86C65.4701 60.49 62.5401 63.42 58.9101 63.42C55.2801 63.42 52.2701 60.48 52.3501 56.86C52.4301 53.18 55.4001 50.22 58.9101 50.3Z" fill="#D68151"/>
<path opacity="0.72" d="M58.9101 50.3C62.5301 50.39 65.4701 53.23 65.4701 56.86C65.4701 60.49 62.5401 63.42 58.9101 63.42C55.2801 63.42 52.2701 60.48 52.3501 56.86C52.4301 53.18 55.4001 50.22 58.9101 50.3Z" fill="#D68252"/>
<path opacity="0.72" d="M58.9101 50.31C62.5301 50.4 65.4701 53.24 65.4701 56.87C65.4701 60.5 62.5401 63.43 58.9101 63.43C55.2801 63.43 52.2701 60.49 52.3501 56.87C52.4301 53.19 55.4001 50.23 58.9101 50.31Z" fill="#D68353"/>
<path opacity="0.71" d="M58.9201 50.31C62.5401 50.4 65.4801 53.24 65.4801 56.87C65.4801 60.5 62.5501 63.43 58.9201 63.43C55.2901 63.43 52.2901 60.49 52.3601 56.87C52.4401 53.19 55.4101 50.23 58.9201 50.31Z" fill="#D68354"/>
<path opacity="0.71" d="M58.9201 50.31C62.5401 50.4 65.4801 53.24 65.4801 56.87C65.4801 60.5 62.5501 63.43 58.9201 63.43C55.2901 63.43 52.2901 60.49 52.3601 56.87C52.4401 53.19 55.4101 50.23 58.9201 50.31Z" fill="#D68455"/>
<path opacity="0.7" d="M58.9201 50.32C62.5401 50.41 65.4801 53.25 65.4801 56.88C65.4801 60.51 62.5501 63.44 58.9201 63.44C55.2901 63.44 52.2901 60.5 52.3601 56.88C52.4401 53.2 55.4101 50.24 58.9201 50.32Z" fill="#D78556"/>
<path opacity="0.7" d="M58.9301 50.32C62.5501 50.41 65.4901 53.25 65.4901 56.88C65.4901 60.51 62.5601 63.44 58.9301 63.44C55.3001 63.44 52.3001 60.5 52.3701 56.88C52.4501 53.2 55.4201 50.24 58.9301 50.32Z" fill="#D78557"/>
<path opacity="0.69" d="M58.9301 50.32C62.5501 50.41 65.4901 53.25 65.4901 56.88C65.4901 60.51 62.5601 63.44 58.9301 63.44C55.3001 63.44 52.3001 60.5 52.3701 56.88C52.4501 53.2 55.4201 50.24 58.9301 50.32Z" fill="#D78658"/>
<path opacity="0.69" d="M58.9301 50.32C62.5501 50.41 65.4901 53.25 65.4901 56.88C65.4901 60.51 62.5601 63.44 58.9301 63.44C55.3001 63.44 52.3001 60.5 52.3701 56.88C52.4501 53.2 55.4201 50.24 58.9301 50.32Z" fill="#D78759"/>
<path opacity="0.68" d="M58.9401 50.33C62.5601 50.42 65.5001 53.26 65.5001 56.89C65.5001 60.52 62.5701 63.45 58.9401 63.45C55.3101 63.45 52.3101 60.51 52.3801 56.89C52.4601 53.21 55.4301 50.25 58.9401 50.33Z" fill="#D8885A"/>
<path opacity="0.68" d="M58.9401 50.33C62.5601 50.41 65.5001 53.26 65.5001 56.89C65.5001 60.52 62.5701 63.45 58.9401 63.45C55.3101 63.45 52.3101 60.51 52.3801 56.89C52.4601 53.21 55.4201 50.25 58.9401 50.33Z" fill="#D8885B"/>
<path opacity="0.67" d="M58.9401 50.33C62.5601 50.41 65.5001 53.26 65.5001 56.89C65.5001 60.52 62.5701 63.45 58.9401 63.45C55.3101 63.45 52.3101 60.51 52.3801 56.89C52.4601 53.21 55.4201 50.25 58.9401 50.33Z" fill="#D8895C"/>
<path opacity="0.67" d="M58.9401 50.34C62.5601 50.42 65.5001 53.27 65.5001 56.9C65.5001 60.53 62.5701 63.46 58.9401 63.46C55.3101 63.46 52.3101 60.52 52.3801 56.9C52.4601 53.22 55.4201 50.26 58.9401 50.34Z" fill="#D88A5C"/>
<path opacity="0.66" d="M58.95 50.34C62.57 50.42 65.51 53.27 65.51 56.9C65.51 60.53 62.58 63.46 58.95 63.46C55.32 63.46 52.32 60.52 52.39 56.9C52.46 53.22 55.43 50.26 58.95 50.34Z" fill="#D88A5D"/>
<path opacity="0.66" d="M58.95 50.34C62.57 50.42 65.51 53.27 65.51 56.9C65.51 60.53 62.58 63.46 58.95 63.46C55.32 63.46 52.32 60.52 52.39 56.9C52.46 53.22 55.43 50.27 58.95 50.34Z" fill="#D98B5E"/>
<path opacity="0.65" d="M58.95 50.35C62.57 50.43 65.51 53.28 65.51 56.91C65.51 60.54 62.58 63.47 58.95 63.47C55.32 63.47 52.32 60.53 52.39 56.91C52.46 53.23 55.43 50.28 58.95 50.35Z" fill="#D98C5F"/>
<path opacity="0.65" d="M58.96 50.35C62.58 50.43 65.52 53.28 65.52 56.91C65.52 60.54 62.59 63.47 58.96 63.47C55.33 63.47 52.33 60.53 52.4 56.91C52.47 53.23 55.44 50.28 58.96 50.35Z" fill="#D98C60"/>
<path opacity="0.64" d="M58.96 50.35C62.58 50.43 65.52 53.28 65.52 56.91C65.52 60.54 62.59 63.47 58.96 63.47C55.33 63.47 52.33 60.53 52.4 56.91C52.47 53.24 55.44 50.28 58.96 50.35Z" fill="#D98D61"/>
<path opacity="0.64" d="M58.96 50.36C62.58 50.44 65.52 53.29 65.52 56.92C65.52 60.55 62.59 63.48 58.96 63.48C55.33 63.48 52.33 60.54 52.4 56.92C52.47 53.25 55.44 50.29 58.96 50.36Z" fill="#DA8E62"/>
<path opacity="0.63" d="M58.97 50.36C62.59 50.44 65.53 53.29 65.53 56.92C65.53 60.55 62.6 63.48 58.97 63.48C55.34 63.48 52.34 60.54 52.41 56.92C52.48 53.25 55.45 50.29 58.97 50.36Z" fill="#DA8F63"/>
<path opacity="0.63" d="M58.97 50.36C62.59 50.44 65.53 53.29 65.53 56.92C65.53 60.55 62.6 63.48 58.97 63.48C55.34 63.48 52.34 60.54 52.41 56.92C52.48 53.25 55.45 50.29 58.97 50.36Z" fill="#DA8F64"/>
<path opacity="0.62" d="M58.9701 50.37C62.5901 50.45 65.5301 53.3 65.5301 56.93C65.5301 60.56 62.6001 63.49 58.9701 63.49C55.3401 63.49 52.3501 60.55 52.4101 56.93C52.4801 53.26 55.4501 50.3 58.9701 50.37Z" fill="#DA9065"/>
<path opacity="0.62" d="M58.9801 50.37C62.6001 50.45 65.5401 53.3 65.5401 56.93C65.5401 60.56 62.6101 63.49 58.9801 63.49C55.3501 63.49 52.3601 60.55 52.4201 56.93C52.4901 53.26 55.4501 50.3 58.9801 50.37Z" fill="#DB9166"/>
<path opacity="0.61" d="M58.9801 50.37C62.6001 50.45 65.5401 53.3 65.5401 56.93C65.5401 60.56 62.6101 63.49 58.9801 63.49C55.3501 63.49 52.3601 60.55 52.4201 56.93C52.4901 53.26 55.4501 50.3 58.9801 50.37Z" fill="#DB9267"/>
<path opacity="0.61" d="M58.9801 50.38C62.6001 50.46 65.5401 53.31 65.5401 56.94C65.5401 60.57 62.6101 63.5 58.9801 63.5C55.3501 63.5 52.3601 60.56 52.4201 56.94C52.4901 53.27 55.4501 50.31 58.9801 50.38Z" fill="#DB9268"/>
<path opacity="0.6" d="M58.9801 50.38C62.6001 50.46 65.5401 53.31 65.5401 56.94C65.5401 60.57 62.6101 63.5 58.9801 63.5C55.3501 63.5 52.3601 60.56 52.4201 56.94C52.4901 53.27 55.4501 50.31 58.9801 50.38Z" fill="#DB9369"/>
<path opacity="0.6" d="M58.9901 50.38C62.6101 50.45 65.5501 53.31 65.5501 56.94C65.5501 60.57 62.6201 63.5 58.9901 63.5C55.3601 63.5 52.3701 60.56 52.4301 56.94C52.5001 53.27 55.4601 50.31 58.9901 50.38Z" fill="#DB946A"/>
<path opacity="0.59" d="M58.9901 50.39C62.6101 50.46 65.5501 53.32 65.5501 56.95C65.5501 60.58 62.6201 63.51 58.9901 63.51C55.3601 63.51 52.3701 60.57 52.4301 56.95C52.5001 53.28 55.4601 50.32 58.9901 50.39Z" fill="#DC946A"/>
<path opacity="0.59" d="M58.9901 50.39C62.6101 50.46 65.5501 53.32 65.5501 56.95C65.5501 60.58 62.6201 63.51 58.9901 63.51C55.3601 63.51 52.3701 60.57 52.4301 56.95C52.5001 53.28 55.4601 50.32 58.9901 50.39Z" fill="#DC956B"/>
<path opacity="0.58" d="M59.0001 50.39C62.6201 50.46 65.5601 53.33 65.5601 56.95C65.5601 60.57 62.6301 63.51 59.0001 63.51C55.3701 63.51 52.3801 60.57 52.4401 56.95C52.5101 53.28 55.4701 50.32 59.0001 50.39Z" fill="#DC966C"/>
<path opacity="0.58" d="M59.0001 50.4C62.6201 50.47 65.5601 53.34 65.5601 56.96C65.5601 60.58 62.6301 63.52 59.0001 63.52C55.3701 63.52 52.3801 60.58 52.4401 56.96C52.5101 53.29 55.4701 50.34 59.0001 50.4Z" fill="#DC976D"/>
<path opacity="0.57" d="M59.0001 50.4C62.6201 50.47 65.5601 53.34 65.5601 56.96C65.5601 60.58 62.6301 63.52 59.0001 63.52C55.3701 63.52 52.3801 60.58 52.4401 56.96C52.5001 53.29 55.4701 50.34 59.0001 50.4Z" fill="#DD976E"/>
<path opacity="0.57" d="M59.0101 50.4C62.6301 50.47 65.5701 53.34 65.5701 56.96C65.5701 60.58 62.6401 63.52 59.0101 63.52C55.3801 63.52 52.3901 60.58 52.4501 56.96C52.5101 53.29 55.4801 50.34 59.0101 50.4Z" fill="#DD986F"/>
<path opacity="0.56" d="M59.0101 50.41C62.6301 50.48 65.5701 53.35 65.5701 56.97C65.5701 60.59 62.6401 63.53 59.0101 63.53C55.3801 63.53 52.3901 60.59 52.4501 56.97C52.5101 53.3 55.4801 50.35 59.0101 50.41Z" fill="#DD9970"/>
<path opacity="0.56" d="M59.0101 50.41C62.6301 50.48 65.5701 53.35 65.5701 56.97C65.5701 60.59 62.6401 63.53 59.0101 63.53C55.3801 63.53 52.3901 60.59 52.4501 56.97C52.5101 53.3 55.4801 50.35 59.0101 50.41Z" fill="#DD9A71"/>
<path opacity="0.55" d="M59.0101 50.41C62.6301 50.48 65.5701 53.35 65.5701 56.97C65.5701 60.59 62.6401 63.53 59.0101 63.53C55.3801 63.53 52.3901 60.59 52.4501 56.97C52.5101 53.3 55.4701 50.35 59.0101 50.41Z" fill="#DE9A72"/>
<path opacity="0.55" d="M59.02 50.42C62.64 50.49 65.58 53.36 65.58 56.98C65.58 60.6 62.65 63.54 59.02 63.54C55.39 63.54 52.4 60.6 52.46 56.98C52.52 53.31 55.48 50.36 59.02 50.42Z" fill="#DE9B73"/>
<path opacity="0.54" d="M59.02 50.42C62.64 50.49 65.58 53.36 65.58 56.98C65.58 60.6 62.65 63.54 59.02 63.54C55.39 63.54 52.4 60.6 52.46 56.98C52.52 53.31 55.48 50.36 59.02 50.42Z" fill="#DE9C74"/>
<path opacity="0.54" d="M59.02 50.42C62.64 50.49 65.58 53.36 65.58 56.98C65.58 60.6 62.65 63.54 59.02 63.54C55.39 63.54 52.4 60.6 52.46 56.98C52.52 53.31 55.48 50.36 59.02 50.42Z" fill="#DE9D75"/>
<path opacity="0.53" d="M59.0301 50.42C62.6501 50.49 65.5901 53.36 65.5901 56.98C65.5901 60.6 62.6601 63.54 59.0301 63.54C55.4001 63.54 52.4201 60.6 52.4701 56.98C52.5301 53.31 55.4901 50.36 59.0301 50.42Z" fill="#DF9D76"/>
<path opacity="0.53" d="M59.0301 50.43C62.6501 50.5 65.5901 53.37 65.5901 56.99C65.5901 60.61 62.6601 63.55 59.0301 63.55C55.4001 63.55 52.4201 60.61 52.4701 56.99C52.5301 53.32 55.4901 50.37 59.0301 50.43Z" fill="#DF9E77"/>
<path opacity="0.52" d="M59.0301 50.43C62.6501 50.5 65.5901 53.37 65.5901 56.99C65.5901 60.61 62.6601 63.55 59.0301 63.55C55.4001 63.55 52.4201 60.61 52.4701 56.99C52.5301 53.33 55.4901 50.37 59.0301 50.43Z" fill="#DF9F78"/>
<path opacity="0.52" d="M59.04 50.43C62.66 50.49 65.6 53.37 65.6 56.99C65.6 60.61 62.67 63.55 59.04 63.55C55.41 63.55 52.43 60.61 52.48 56.99C52.54 53.33 55.5 50.37 59.04 50.43Z" fill="#DFA079"/>
<path opacity="0.51" d="M59.04 50.44C62.66 50.5 65.6 53.38 65.6 57C65.6 60.62 62.67 63.56 59.04 63.56C55.41 63.56 52.43 60.62 52.48 57C52.54 53.34 55.5 50.38 59.04 50.44Z" fill="#DFA17A"/>
<path opacity="0.51" d="M59.04 50.44C62.66 50.5 65.6 53.38 65.6 57C65.6 60.62 62.67 63.56 59.04 63.56C55.41 63.56 52.43 60.62 52.48 57C52.54 53.34 55.5 50.38 59.04 50.44Z" fill="#E0A17B"/>
<path opacity="0.5" d="M59.05 50.44C62.67 50.5 65.61 53.38 65.61 57C65.61 60.62 62.68 63.56 59.05 63.56C55.42 63.56 52.44 60.62 52.49 57C52.55 53.34 55.51 50.38 59.05 50.44Z" fill="#E0A27C"/>
<path opacity="0.5" d="M59.05 50.45C62.67 50.51 65.61 53.39 65.61 57.01C65.61 60.63 62.68 63.57 59.05 63.57C55.42 63.57 52.44 60.63 52.49 57.01C52.55 53.35 55.51 50.39 59.05 50.45Z" fill="#E0A37D"/>
<path opacity="0.49" d="M59.05 50.45C62.67 50.51 65.61 53.39 65.61 57.01C65.61 60.63 62.68 63.57 59.05 63.57C55.42 63.57 52.44 60.63 52.49 57.01C52.55 53.35 55.5 50.4 59.05 50.45Z" fill="#E0A47E"/>
<path opacity="0.49" d="M59.05 50.45C62.67 50.51 65.61 53.39 65.61 57.01C65.61 60.63 62.68 63.57 59.05 63.57C55.42 63.57 52.44 60.63 52.49 57.01C52.55 53.35 55.5 50.4 59.05 50.45Z" fill="#E1A47F"/>
<path opacity="0.48" d="M59.06 50.46C62.68 50.52 65.62 53.4 65.62 57.02C65.62 60.64 62.69 63.58 59.06 63.58C55.43 63.58 52.45 60.64 52.5 57.02C52.55 53.36 55.51 50.41 59.06 50.46Z" fill="#E1A580"/>
<path opacity="0.48" d="M59.06 50.46C62.68 50.52 65.62 53.4 65.62 57.02C65.62 60.64 62.69 63.58 59.06 63.58C55.43 63.58 52.45 60.64 52.5 57.02C52.55 53.36 55.51 50.41 59.06 50.46Z" fill="#E1A681"/>
<path opacity="0.47" d="M59.06 50.46C62.68 50.52 65.62 53.4 65.62 57.02C65.62 60.64 62.69 63.58 59.06 63.58C55.43 63.58 52.45 60.64 52.5 57.02C52.55 53.36 55.51 50.41 59.06 50.46Z" fill="#E1A782"/>
<path opacity="0.47" d="M59.07 50.47C62.69 50.53 65.63 53.41 65.63 57.03C65.63 60.65 62.7 63.59 59.07 63.59C55.44 63.59 52.46 60.65 52.51 57.03C52.56 53.37 55.52 50.42 59.07 50.47Z" fill="#E2A883"/>
<path opacity="0.46" d="M59.07 50.47C62.69 50.53 65.63 53.41 65.63 57.03C65.63 60.65 62.7 63.59 59.07 63.59C55.44 63.59 52.46 60.65 52.51 57.03C52.56 53.37 55.52 50.42 59.07 50.47Z" fill="#E2A884"/>
<path opacity="0.46" d="M59.07 50.47C62.69 50.53 65.63 53.41 65.63 57.03C65.63 60.65 62.7 63.59 59.07 63.59C55.44 63.59 52.46 60.65 52.51 57.03C52.56 53.37 55.52 50.42 59.07 50.47Z" fill="#E2A985"/>
<path opacity="0.45" d="M59.08 50.48C62.7 50.54 65.64 53.42 65.64 57.04C65.64 60.66 62.71 63.6 59.08 63.6C55.45 63.6 52.47 60.66 52.52 57.04C52.57 53.38 55.53 50.43 59.08 50.48Z" fill="#E2AA86"/>
<path opacity="0.45" d="M59.08 50.48C62.7 50.54 65.64 53.42 65.64 57.04C65.64 60.66 62.71 63.6 59.08 63.6C55.45 63.6 52.47 60.66 52.52 57.04C52.57 53.38 55.53 50.43 59.08 50.48Z" fill="#E3AB87"/>
<path opacity="0.44" d="M59.0801 50.48C62.7001 50.54 65.6401 53.42 65.6401 57.04C65.6401 60.66 62.7101 63.6 59.0801 63.6C55.4501 63.6 52.4801 60.66 52.5201 57.04C52.5701 53.38 55.5301 50.43 59.0801 50.48Z" fill="#E3AC88"/>
<path opacity="0.44" d="M59.0901 50.49C62.7101 50.54 65.6501 53.43 65.6501 57.05C65.6501 60.67 62.7201 63.61 59.0901 63.61C55.4601 63.61 52.4901 60.67 52.5301 57.05C52.5801 53.39 55.5401 50.44 59.0901 50.49Z" fill="#E3AC89"/>
<path opacity="0.43" d="M59.0901 50.49C62.7101 50.54 65.6501 53.43 65.6501 57.05C65.6501 60.67 62.7201 63.61 59.0901 63.61C55.4601 63.61 52.4901 60.67 52.5301 57.05C52.5801 53.39 55.5401 50.44 59.0901 50.49Z" fill="#E4AD8A"/>
<path opacity="0.43" d="M59.0901 50.49C62.7101 50.54 65.6501 53.43 65.6501 57.05C65.6501 60.67 62.7201 63.61 59.0901 63.61C55.4601 63.61 52.4901 60.67 52.5301 57.05C52.5801 53.39 55.5301 50.44 59.0901 50.49Z" fill="#E4AE8B"/>
<path opacity="0.42" d="M59.0901 50.5C62.7101 50.55 65.6501 53.44 65.6501 57.06C65.6501 60.68 62.7201 63.62 59.0901 63.62C55.4601 63.62 52.4901 60.68 52.5301 57.06C52.5801 53.4 55.5301 50.45 59.0901 50.5Z" fill="#E4AF8D"/>
<path opacity="0.42" d="M59.1001 50.5C62.7201 50.55 65.6601 53.44 65.6601 57.06C65.6601 60.68 62.7301 63.62 59.1001 63.62C55.4701 63.62 52.5001 60.68 52.5401 57.06C52.5901 53.4 55.5401 50.45 59.1001 50.5Z" fill="#E4B08E"/>
<path opacity="0.41" d="M59.1001 50.5C62.7201 50.55 65.6601 53.44 65.6601 57.06C65.6601 60.68 62.7301 63.62 59.1001 63.62C55.4701 63.62 52.5001 60.68 52.5401 57.06C52.5901 53.4 55.5401 50.45 59.1001 50.5Z" fill="#E5B08F"/>
<path opacity="0.41" d="M59.1001 50.51C62.7201 50.56 65.6601 53.45 65.6601 57.07C65.6601 60.69 62.7301 63.63 59.1001 63.63C55.4701 63.63 52.5001 60.69 52.5401 57.07C52.5901 53.41 55.5401 50.47 59.1001 50.51Z" fill="#E5B190"/>
<path opacity="0.4" d="M59.1101 50.51C62.7301 50.56 65.6701 53.45 65.6701 57.07C65.6701 60.69 62.7401 63.63 59.1101 63.63C55.4801 63.63 52.5101 60.69 52.5501 57.07C52.6001 53.42 55.5501 50.47 59.1101 50.51Z" fill="#E5B291"/>
<path opacity="0.4" d="M59.1101 50.51C62.7301 50.56 65.6701 53.45 65.6701 57.07C65.6701 60.69 62.7401 63.63 59.1101 63.63C55.4801 63.63 52.5101 60.69 52.5501 57.07C52.5901 53.42 55.5501 50.47 59.1101 50.51Z" fill="#E5B392"/>
<path opacity="0.39" d="M59.1101 50.51C62.7301 50.56 65.6701 53.45 65.6701 57.07C65.6701 60.69 62.7401 63.63 59.1101 63.63C55.4801 63.63 52.5101 60.69 52.5501 57.07C52.5901 53.42 55.5501 50.47 59.1101 50.51Z" fill="#E6B493"/>
<path opacity="0.39" d="M59.1201 50.52C62.7401 50.57 65.6801 53.46 65.6801 57.08C65.6801 60.7 62.7501 63.64 59.1201 63.64C55.4901 63.64 52.5201 60.7 52.5601 57.08C52.6001 53.43 55.5601 50.48 59.1201 50.52Z" fill="#E6B594"/>
<path opacity="0.38" d="M59.1201 50.52C62.7401 50.57 65.6801 53.46 65.6801 57.08C65.6801 60.7 62.7501 63.64 59.1201 63.64C55.4901 63.64 52.5201 60.7 52.5601 57.08C52.6001 53.43 55.5601 50.48 59.1201 50.52Z" fill="#E6B595"/>
<path opacity="0.38" d="M59.1201 50.52C62.7401 50.57 65.6801 53.46 65.6801 57.08C65.6801 60.7 62.7501 63.64 59.1201 63.64C55.4901 63.64 52.5201 60.7 52.5601 57.08C52.6001 53.43 55.5601 50.48 59.1201 50.52Z" fill="#E6B697"/>
<path opacity="0.37" d="M59.1301 50.53C62.7501 50.58 65.6901 53.47 65.6901 57.09C65.6901 60.71 62.7601 63.65 59.1301 63.65C55.5001 63.65 52.5301 60.71 52.5701 57.09C52.6101 53.44 55.5701 50.49 59.1301 50.53Z" fill="#E7B798"/>
<path opacity="0.37" d="M59.1301 50.53C62.7501 50.58 65.6901 53.47 65.6901 57.09C65.6901 60.71 62.7601 63.65 59.1301 63.65C55.5001 63.65 52.5301 60.71 52.5701 57.09C52.6101 53.44 55.5601 50.49 59.1301 50.53Z" fill="#E7B899"/>
<path opacity="0.36" d="M59.1301 50.53C62.7501 50.58 65.6901 53.47 65.6901 57.09C65.6901 60.71 62.7601 63.65 59.1301 63.65C55.5001 63.65 52.5301 60.71 52.5701 57.09C52.6101 53.44 55.5601 50.49 59.1301 50.53Z" fill="#E7B99A"/>
<path opacity="0.36" d="M59.1301 50.54C62.7501 50.58 65.6901 53.48 65.6901 57.1C65.6901 60.72 62.7601 63.66 59.1301 63.66C55.5001 63.66 52.5301 60.72 52.5701 57.1C52.6101 53.45 55.5601 50.5 59.1301 50.54Z" fill="#E7B99B"/>
<path opacity="0.35" d="M59.14 50.54C62.76 50.58 65.7 53.48 65.7 57.1C65.7 60.72 62.77 63.66 59.14 63.66C55.51 63.66 52.54 60.72 52.58 57.1C52.62 53.45 55.57 50.5 59.14 50.54Z" fill="#E8BA9C"/>
<path opacity="0.35" d="M59.1401 50.54C62.7601 50.58 65.7001 53.48 65.7001 57.1C65.7001 60.72 62.7701 63.66 59.1401 63.66C55.5101 63.66 52.5501 60.72 52.5801 57.1C52.6201 53.45 55.5701 50.5 59.1401 50.54Z" fill="#E8BB9D"/>
<path opacity="0.34" d="M59.1401 50.55C62.7601 50.59 65.7001 53.49 65.7001 57.11C65.7001 60.73 62.7701 63.67 59.1401 63.67C55.5101 63.67 52.5501 60.73 52.5801 57.11C52.6201 53.46 55.5701 50.51 59.1401 50.55Z" fill="#E8BC9F"/>
<path opacity="0.34" d="M59.1501 50.55C62.7701 50.59 65.7101 53.49 65.7101 57.11C65.7101 60.73 62.7801 63.67 59.1501 63.67C55.5201 63.67 52.5601 60.73 52.5901 57.11C52.6301 53.46 55.5801 50.51 59.1501 50.55Z" fill="#E8BDA0"/>
<path opacity="0.33" d="M59.1501 50.55C62.7701 50.59 65.7101 53.49 65.7101 57.11C65.7101 60.73 62.7801 63.67 59.1501 63.67C55.5201 63.67 52.5601 60.73 52.5901 57.11C52.6301 53.46 55.5801 50.51 59.1501 50.55Z" fill="#E9BEA1"/>
<path opacity="0.33" d="M59.1501 50.56C62.7701 50.6 65.7101 53.5 65.7101 57.12C65.7101 60.74 62.7801 63.68 59.1501 63.68C55.5201 63.68 52.5601 60.74 52.5901 57.12C52.6301 53.47 55.5801 50.52 59.1501 50.56Z" fill="#E9BEA2"/>
<path opacity="0.32" d="M59.1601 50.56C62.7801 50.6 65.7201 53.5 65.7201 57.12C65.7201 60.74 62.7901 63.68 59.1601 63.68C55.5301 63.68 52.5701 60.74 52.6001 57.12C52.6401 53.47 55.5901 50.53 59.1601 50.56Z" fill="#E9BFA3"/>
<path opacity="0.32" d="M59.1601 50.56C62.7801 50.6 65.7201 53.5 65.7201 57.12C65.7201 60.74 62.7901 63.68 59.1601 63.68C55.5301 63.68 52.5701 60.74 52.6001 57.12C52.6401 53.47 55.5901 50.53 59.1601 50.56Z" fill="#E9C0A5"/>
<path opacity="0.31" d="M59.1601 50.57C62.7801 50.61 65.7201 53.51 65.7201 57.13C65.7201 60.75 62.7901 63.69 59.1601 63.69C55.5301 63.69 52.5701 60.75 52.6001 57.13C52.6401 53.48 55.5901 50.54 59.1601 50.57Z" fill="#EAC1A6"/>
<path opacity="0.31" d="M59.1601 50.57C62.7801 50.61 65.7201 53.51 65.7201 57.13C65.7201 60.75 62.7901 63.69 59.1601 63.69C55.5301 63.69 52.5701 60.75 52.6001 57.13C52.6301 53.48 55.5901 50.54 59.1601 50.57Z" fill="#EAC2A7"/>
<path opacity="0.3" d="M59.1701 50.57C62.7901 50.61 65.7301 53.51 65.7301 57.13C65.7301 60.75 62.8001 63.69 59.1701 63.69C55.5401 63.69 52.5801 60.75 52.6101 57.13C52.6401 53.48 55.5901 50.54 59.1701 50.57Z" fill="#EAC3A8"/>
<path opacity="0.3" d="M59.1701 50.58C62.7901 50.62 65.7301 53.52 65.7301 57.14C65.7301 60.76 62.8001 63.7 59.1701 63.7C55.5401 63.7 52.5801 60.76 52.6101 57.14C52.6401 53.49 55.5901 50.55 59.1701 50.58Z" fill="#EAC4A9"/>
<path opacity="0.29" d="M59.1701 50.58C62.7901 50.62 65.7301 53.52 65.7301 57.14C65.7301 60.76 62.8001 63.7 59.1701 63.7C55.5401 63.7 52.5801 60.76 52.6101 57.14C52.6401 53.49 55.5901 50.55 59.1701 50.58Z" fill="#EBC4AA"/>
<path opacity="0.29" d="M59.1801 50.58C62.8001 50.62 65.7401 53.52 65.7401 57.14C65.7401 60.76 62.8101 63.7 59.1801 63.7C55.5501 63.7 52.5901 60.76 52.6201 57.14C52.6501 53.49 55.6001 50.55 59.1801 50.58Z" fill="#EBC5AC"/>
<path opacity="0.28" d="M59.1801 50.59C62.8001 50.63 65.7401 53.53 65.7401 57.15C65.7401 60.77 62.8101 63.71 59.1801 63.71C55.5501 63.71 52.5901 60.77 52.6201 57.15C52.6501 53.51 55.6001 50.56 59.1801 50.59Z" fill="#EBC6AD"/>
<path opacity="0.28" d="M59.1801 50.59C62.8001 50.62 65.7401 53.53 65.7401 57.15C65.7401 60.77 62.8101 63.71 59.1801 63.71C55.5501 63.71 52.5901 60.77 52.6201 57.15C52.6501 53.51 55.6001 50.56 59.1801 50.59Z" fill="#ECC7AE"/>
<path opacity="0.27" d="M59.1901 50.59C62.8101 50.62 65.7501 53.53 65.7501 57.15C65.7501 60.77 62.8201 63.71 59.1901 63.71C55.5601 63.71 52.6001 60.77 52.6301 57.15C52.6601 53.51 55.6101 50.56 59.1901 50.59Z" fill="#ECC8AF"/>
<path opacity="0.27" d="M59.1901 50.6C62.8101 50.63 65.7501 53.54 65.7501 57.16C65.7501 60.78 62.8201 63.72 59.1901 63.72C55.5601 63.72 52.6001 60.78 52.6301 57.16C52.6601 53.52 55.6101 50.57 59.1901 50.6Z" fill="#ECC9B0"/>
<path opacity="0.26" d="M59.1901 50.6C62.8101 50.63 65.7501 53.54 65.7501 57.16C65.7501 60.78 62.8201 63.72 59.1901 63.72C55.5601 63.72 52.6001 60.78 52.6301 57.16C52.6601 53.52 55.6101 50.57 59.1901 50.6Z" fill="#ECCAB2"/>
<path opacity="0.26" d="M59.2 50.6C62.82 50.63 65.76 53.54 65.76 57.16C65.76 60.78 62.83 63.72 59.2 63.72C55.57 63.72 52.62 60.78 52.64 57.16C52.67 53.52 55.62 50.57 59.2 50.6Z" fill="#EDCAB3"/>
<path opacity="0.25" d="M59.2 50.6C62.82 50.63 65.76 53.54 65.76 57.16C65.76 60.78 62.83 63.72 59.2 63.72C55.57 63.72 52.62 60.78 52.64 57.16C52.67 53.52 55.62 50.57 59.2 50.6Z" fill="#EDCBB4"/>
<path opacity="0.25" d="M59.2 50.61C62.82 50.64 65.76 53.55 65.76 57.17C65.76 60.79 62.83 63.73 59.2 63.73C55.57 63.73 52.62 60.79 52.64 57.17C52.67 53.53 55.62 50.58 59.2 50.61Z" fill="#EDCCB5"/>
<path opacity="0.24" d="M59.2 50.61C62.82 50.64 65.76 53.55 65.76 57.17C65.76 60.79 62.83 63.73 59.2 63.73C55.57 63.73 52.62 60.79 52.64 57.17C52.67 53.53 55.61 50.58 59.2 50.61Z" fill="#EDCDB7"/>
<path opacity="0.24" d="M59.21 50.61C62.83 50.64 65.77 53.55 65.77 57.17C65.77 60.79 62.84 63.73 59.21 63.73C55.58 63.73 52.63 60.79 52.65 57.17C52.68 53.53 55.62 50.59 59.21 50.61Z" fill="#EECEB8"/>
<path opacity="0.23" d="M59.21 50.62C62.83 50.65 65.77 53.56 65.77 57.18C65.77 60.8 62.84 63.74 59.21 63.74C55.58 63.74 52.63 60.8 52.65 57.18C52.68 53.54 55.62 50.6 59.21 50.62Z" fill="#EECFB9"/>
<path opacity="0.23" d="M59.21 50.62C62.83 50.65 65.77 53.56 65.77 57.18C65.77 60.8 62.84 63.74 59.21 63.74C55.58 63.74 52.63 60.8 52.65 57.18C52.68 53.54 55.62 50.6 59.21 50.62Z" fill="#EED0BA"/>
<path opacity="0.22" d="M59.22 50.62C62.84 50.65 65.78 53.56 65.78 57.18C65.78 60.8 62.85 63.74 59.22 63.74C55.59 63.74 52.64 60.8 52.66 57.18C52.69 53.54 55.63 50.6 59.22 50.62Z" fill="#EFD0BB"/>
<path opacity="0.22" d="M59.22 50.63C62.84 50.66 65.78 53.57 65.78 57.19C65.78 60.81 62.85 63.75 59.22 63.75C55.59 63.75 52.64 60.81 52.66 57.19C52.68 53.55 55.63 50.61 59.22 50.63Z" fill="#EFD1BD"/>
<path opacity="0.21" d="M59.22 50.63C62.84 50.66 65.78 53.57 65.78 57.19C65.78 60.81 62.85 63.75 59.22 63.75C55.59 63.75 52.64 60.81 52.66 57.19C52.68 53.55 55.63 50.61 59.22 50.63Z" fill="#EFD2BE"/>
<path opacity="0.21" d="M59.23 50.63C62.85 50.66 65.79 53.57 65.79 57.19C65.79 60.81 62.86 63.75 59.23 63.75C55.6 63.75 52.65 60.81 52.67 57.19C52.69 53.55 55.64 50.61 59.23 50.63Z" fill="#EFD3BF"/>
<path opacity="0.2" d="M59.23 50.64C62.85 50.67 65.79 53.58 65.79 57.2C65.79 60.82 62.86 63.76 59.23 63.76C55.6 63.76 52.65 60.82 52.67 57.2C52.69 53.56 55.64 50.62 59.23 50.64Z" fill="#F0D4C0"/>
<path opacity="0.2" d="M59.23 50.64C62.85 50.66 65.79 53.58 65.79 57.2C65.79 60.82 62.86 63.76 59.23 63.76C55.6 63.76 52.65 60.82 52.67 57.2C52.69 53.56 55.64 50.62 59.23 50.64Z" fill="#F0D5C2"/>
<path opacity="0.19" d="M59.24 50.64C62.86 50.66 65.8 53.58 65.8 57.2C65.8 60.82 62.87 63.76 59.24 63.76C55.61 63.76 52.66 60.82 52.68 57.2C52.7 53.56 55.65 50.62 59.24 50.64Z" fill="#F0D6C3"/>
<path opacity="0.19" d="M59.24 50.65C62.86 50.67 65.8 53.59 65.8 57.21C65.8 60.83 62.87 63.77 59.24 63.77C55.61 63.77 52.66 60.83 52.68 57.21C52.7 53.57 55.65 50.63 59.24 50.65Z" fill="#F1D7C4"/>
<path opacity="0.18" d="M59.24 50.65C62.86 50.67 65.8 53.59 65.8 57.21C65.8 60.83 62.87 63.77 59.24 63.77C55.61 63.77 52.66 60.83 52.68 57.21C52.7 53.57 55.64 50.63 59.24 50.65Z" fill="#F1D7C6"/>
<path opacity="0.18" d="M59.24 50.65C62.86 50.67 65.8 53.59 65.8 57.21C65.8 60.83 62.87 63.77 59.24 63.77C55.61 63.77 52.66 60.83 52.68 57.21C52.7 53.57 55.64 50.63 59.24 50.65Z" fill="#F1D8C7"/>
<path opacity="0.17" d="M59.25 50.66C62.87 50.68 65.81 53.6 65.81 57.22C65.81 60.84 62.88 63.78 59.25 63.78C55.62 63.78 52.67 60.84 52.69 57.22C52.71 53.58 55.65 50.64 59.25 50.66Z" fill="#F1D9C8"/>
<path opacity="0.17" d="M59.2501 50.66C62.8701 50.68 65.8101 53.6 65.8101 57.22C65.8101 60.84 62.8801 63.78 59.2501 63.78C55.6201 63.78 52.6801 60.84 52.6901 57.22C52.7101 53.59 55.6501 50.64 59.2501 50.66Z" fill="#F2DAC9"/>
<path opacity="0.16" d="M59.2501 50.66C62.8701 50.68 65.8101 53.6 65.8101 57.22C65.8101 60.84 62.8801 63.78 59.2501 63.78C55.6201 63.78 52.6801 60.84 52.6901 57.22C52.7101 53.59 55.6501 50.64 59.2501 50.66Z" fill="#F2DBCB"/>
<path opacity="0.16" d="M59.2601 50.67C62.8801 50.69 65.8201 53.61 65.8201 57.23C65.8201 60.85 62.8901 63.79 59.2601 63.79C55.6301 63.79 52.6901 60.85 52.7001 57.23C52.7201 53.6 55.6601 50.66 59.2601 50.67Z" fill="#F2DCCC"/>
<path opacity="0.15" d="M59.2601 50.67C62.8801 50.69 65.8201 53.61 65.8201 57.23C65.8201 60.85 62.8901 63.79 59.2601 63.79C55.6301 63.79 52.6901 60.85 52.7001 57.23C52.7201 53.6 55.6601 50.66 59.2601 50.67Z" fill="#F3DDCD"/>
<path opacity="0.15" d="M59.2601 50.67C62.8801 50.69 65.8201 53.61 65.8201 57.23C65.8201 60.85 62.8901 63.79 59.2601 63.79C55.6301 63.79 52.6901 60.85 52.7001 57.23C52.7201 53.6 55.6601 50.66 59.2601 50.67Z" fill="#F3DECF"/>
<path opacity="0.14" d="M59.27 50.68C62.89 50.7 65.83 53.62 65.83 57.24C65.83 60.86 62.9 63.8 59.27 63.8C55.64 63.8 52.7 60.86 52.71 57.24C52.73 53.61 55.67 50.67 59.27 50.68Z" fill="#F3DFD0"/>
<path opacity="0.14" d="M59.27 50.68C62.89 50.7 65.83 53.62 65.83 57.24C65.83 60.86 62.9 63.8 59.27 63.8C55.64 63.8 52.7 60.86 52.71 57.24C52.73 53.61 55.67 50.67 59.27 50.68Z" fill="#F4E0D1"/>
<path opacity="0.13" d="M59.27 50.68C62.89 50.7 65.83 53.62 65.83 57.24C65.83 60.86 62.9 63.8 59.27 63.8C55.64 63.8 52.7 60.86 52.71 57.24C52.73 53.61 55.67 50.67 59.27 50.68Z" fill="#F4E1D3"/>
<path opacity="0.13" d="M59.28 50.69C62.9 50.71 65.84 53.63 65.84 57.25C65.84 60.87 62.91 63.81 59.28 63.81C55.65 63.81 52.71 60.87 52.72 57.25C52.73 53.62 55.68 50.68 59.28 50.69Z" fill="#F4E2D4"/>
<path opacity="0.12" d="M59.28 50.69C62.9 50.71 65.84 53.63 65.84 57.25C65.84 60.87 62.91 63.81 59.28 63.81C55.65 63.81 52.71 60.87 52.72 57.25C52.73 53.62 55.68 50.68 59.28 50.69Z" fill="#F5E3D5"/>
<path opacity="0.12" d="M59.28 50.69C62.9 50.7 65.84 53.63 65.84 57.25C65.84 60.87 62.91 63.81 59.28 63.81C55.65 63.81 52.71 60.87 52.72 57.25C52.73 53.62 55.67 50.68 59.28 50.69Z" fill="#F5E4D7"/>
<path opacity="0.11" d="M59.28 50.7C62.9 50.71 65.84 53.64 65.84 57.26C65.84 60.88 62.91 63.82 59.28 63.82C55.65 63.82 52.71 60.88 52.72 57.26C52.73 53.63 55.67 50.69 59.28 50.7Z" fill="#F5E5D8"/>
<path opacity="0.11" d="M59.29 50.7C62.91 50.71 65.85 53.64 65.85 57.26C65.85 60.88 62.92 63.82 59.29 63.82C55.66 63.82 52.72 60.88 52.73 57.26C52.74 53.63 55.68 50.69 59.29 50.7Z" fill="#F6E5DA"/>
<path opacity="0.1" d="M59.29 50.7C62.91 50.71 65.85 53.64 65.85 57.26C65.85 60.88 62.92 63.82 59.29 63.82C55.66 63.82 52.72 60.88 52.73 57.26C52.74 53.63 55.68 50.69 59.29 50.7Z" fill="#F6E6DB"/>
<path opacity="0.1" d="M59.29 50.7C62.91 50.71 65.85 53.64 65.85 57.26C65.85 60.88 62.92 63.82 59.29 63.82C55.66 63.82 52.72 60.88 52.73 57.26C52.74 53.63 55.68 50.69 59.29 50.7Z" fill="#F6E7DC"/>
<path opacity="0.09" d="M59.3 50.71C62.92 50.72 65.86 53.65 65.86 57.27C65.86 60.89 62.93 63.83 59.3 63.83C55.67 63.83 52.73 60.89 52.74 57.27C52.75 53.64 55.69 50.7 59.3 50.71Z" fill="#F7E8DE"/>
<path opacity="0.09" d="M59.3 50.71C62.92 50.72 65.86 53.65 65.86 57.27C65.86 60.89 62.93 63.83 59.3 63.83C55.67 63.83 52.73 60.89 52.74 57.27C52.75 53.64 55.69 50.7 59.3 50.71Z" fill="#F7E9DF"/>
<path opacity="0.08" d="M59.3 50.71C62.92 50.72 65.86 53.65 65.86 57.27C65.86 60.89 62.93 63.83 59.3 63.83C55.67 63.83 52.73 60.89 52.74 57.27C52.74 53.64 55.69 50.7 59.3 50.71Z" fill="#F8EAE1"/>
<path opacity="0.08" d="M59.31 50.72C62.93 50.72 65.87 53.66 65.87 57.28C65.87 60.9 62.94 63.84 59.31 63.84C55.68 63.84 52.75 60.9 52.75 57.28C52.75 53.65 55.7 50.71 59.31 50.72Z" fill="#F8EBE2"/>
<path opacity="0.07" d="M59.31 50.72C62.93 50.72 65.87 53.66 65.87 57.28C65.87 60.9 62.94 63.84 59.31 63.84C55.68 63.84 52.75 60.9 52.75 57.28C52.75 53.65 55.7 50.72 59.31 50.72Z" fill="#F8ECE4"/>
<path opacity="0.07" d="M59.31 50.72C62.93 50.72 65.87 53.66 65.87 57.28C65.87 60.9 62.94 63.84 59.31 63.84C55.68 63.84 52.75 60.9 52.75 57.28C52.75 53.65 55.7 50.72 59.31 50.72Z" fill="#F9EDE5"/>
<path opacity="0.06" d="M59.31 50.73C62.93 50.73 65.87 53.67 65.87 57.29C65.87 60.91 62.94 63.85 59.31 63.85C55.68 63.85 52.75 60.91 52.75 57.29C52.75 53.66 55.7 50.73 59.31 50.73Z" fill="#F9EEE7"/>
<path opacity="0.06" d="M59.32 50.73C62.94 50.73 65.88 53.67 65.88 57.29C65.88 60.91 62.95 63.85 59.32 63.85C55.69 63.85 52.76 60.91 52.76 57.29C52.76 53.66 55.7 50.73 59.32 50.73Z" fill="#FAEFE8"/>
<path opacity="0.05" d="M59.32 50.73C62.94 50.73 65.88 53.67 65.88 57.29C65.88 60.91 62.95 63.85 59.32 63.85C55.69 63.85 52.76 60.91 52.76 57.29C52.76 53.66 55.7 50.73 59.32 50.73Z" fill="#FAF0EA"/>
<path opacity="0.05" d="M59.32 50.74C62.94 50.74 65.88 53.68 65.88 57.3C65.88 60.92 62.95 63.86 59.32 63.86C55.69 63.86 52.76 60.92 52.76 57.3C52.76 53.68 55.7 50.74 59.32 50.74Z" fill="#FAF1EB"/>
<path opacity="0.04" d="M59.33 50.74C62.95 50.74 65.89 53.68 65.89 57.3C65.89 60.92 62.96 63.86 59.33 63.86C55.7 63.86 52.77 60.92 52.77 57.3C52.77 53.68 55.71 50.74 59.33 50.74Z" fill="#FBF3ED"/>
<path opacity="0.04" d="M59.33 50.74C62.95 50.74 65.89 53.68 65.89 57.3C65.89 60.92 62.96 63.86 59.33 63.86C55.7 63.86 52.77 60.92 52.77 57.3C52.77 53.68 55.71 50.74 59.33 50.74Z" fill="#FBF4EE"/>
<path opacity="0.03" d="M59.33 50.75C62.95 50.75 65.89 53.69 65.89 57.31C65.89 60.93 62.96 63.87 59.33 63.87C55.7 63.87 52.77 60.93 52.77 57.31C52.77 53.69 55.71 50.75 59.33 50.75Z" fill="#FCF5F0"/>
<path opacity="0.03" d="M59.34 50.75C62.96 50.75 65.9 53.69 65.9 57.31C65.9 60.93 62.97 63.87 59.34 63.87C55.71 63.87 52.78 60.93 52.78 57.31C52.78 53.69 55.72 50.75 59.34 50.75Z" fill="#FCF6F1"/>
<path opacity="0.02" d="M59.34 50.75C62.96 50.75 65.9 53.69 65.9 57.31C65.9 60.93 62.97 63.87 59.34 63.87C55.71 63.87 52.78 60.93 52.78 57.31C52.78 53.69 55.72 50.75 59.34 50.75Z" fill="#FDF7F3"/>
<path opacity="0.02" d="M59.34 50.76C62.96 50.76 65.9 53.7 65.9 57.32C65.9 60.94 62.97 63.88 59.34 63.88C55.71 63.88 52.78 60.94 52.78 57.32C52.78 53.7 55.72 50.76 59.34 50.76Z" fill="#FDF8F5"/>
<path opacity="0.01" d="M59.35 50.76C62.97 50.76 65.91 53.7 65.91 57.32C65.91 60.94 62.98 63.88 59.35 63.88C55.72 63.88 52.79 60.94 52.79 57.32C52.79 53.7 55.73 50.76 59.35 50.76Z" fill="#FEFAF7"/>
</g>
</g>
</g>
</g>
<rect x="1" y="1" width="110" height="110" rx="9" stroke="black" stroke-opacity="0.1" stroke-width="2"/>
<defs>
<linearGradient id="paint0_linear_505_114" x1="61.2" y1="60.92" x2="56.66" y2="53.81" gradientUnits="userSpaceOnUse">
<stop stop-color="#F9A020"/>
<stop offset="0.25" stop-color="#F89B20"/>
<stop offset="0.53" stop-color="#F68D20"/>
<stop offset="0.62" stop-color="#F68820"/>
<stop offset="0.73" stop-color="#F58120"/>
<stop offset="1" stop-color="#F47521"/>
</linearGradient>
<linearGradient id="paint1_linear_505_114" x1="60.48" y1="60.82" x2="53.85" y2="47.86" gradientUnits="userSpaceOnUse">
<stop stop-color="#F68820" stop-opacity="0"/>
<stop offset="0.11" stop-color="#EE7F22" stop-opacity="0.14"/>
<stop offset="0.31" stop-color="#E37226" stop-opacity="0.35"/>
<stop offset="0.5" stop-color="#DB6829" stop-opacity="0.52"/>
<stop offset="0.69" stop-color="#D5602C" stop-opacity="0.64"/>
<stop offset="0.85" stop-color="#D15C2D" stop-opacity="0.71"/>
<stop offset="0.98" stop-color="#D05B2E" stop-opacity="0.74"/>
</linearGradient>
<clipPath id="clip0_505_114">
<rect x="2" y="2" width="108" height="108" rx="8" fill="white"/>
</clipPath>
<clipPath id="clip1_505_114">
<rect width="78.61" height="14.88" fill="white" transform="translate(17 49)"/>
</clipPath>
</defs>
</svg>
