<svg width="256" height="256" viewBox="0 0 256 256" fill="none" xmlns="http://www.w3.org/2000/svg">
<rect width="256" height="256" fill="#1E5110" className="fill-primary bg-primary"/>
<path d="M171.721 62.849C169.453 60.8244 164.884 65.9024 157.359 66.6326C137.878 68.5576 132.312 69.3209 121.901 71.4119C110.838 73.6356 103.142 76.0252 97.2321 79.1118C80.6714 87.7411 70.6044 102.477 67.5465 122.457C67.1342 125.113 66.7219 136.463 66.9968 137.227C67.1342 137.559 68.1649 136.629 71.3946 133.31C83.4888 120.798 97.0603 111.837 110.494 107.356C113.415 106.394 117.744 105.365 117.95 105.564C117.985 105.63 116.404 106.493 114.377 107.555C104.035 112.932 94.5522 119.271 87.1995 125.843C84.0041 128.697 79.8468 132.381 75.552 138.123C71.8069 143.134 66.5844 150.104 65.7598 156.377C63.664 172.341 89.1235 190.297 110.46 196.769C134.992 204.236 155.985 197.134 162.066 194.711C172.717 190.463 180.379 184.588 185.327 179.975C181.101 183.227 154.817 202.61 120.665 196.171C103.863 193.018 93.1435 185.318 83.7636 177.95C80.7401 175.594 75.1397 170.748 74.7961 164.741C74.7274 163.679 74.5899 160.891 76.3422 158.202C77.6822 156.178 79.5032 155.149 80.3278 154.684C81.1868 154.187 82.9734 153.722 86.5467 152.759C88.5738 152.195 90.1543 151.83 91.1507 151.598C92.6281 151.266 93.6245 151.067 94.346 150.934C97.0603 150.37 99.0187 149.872 101.939 149.109C114.102 145.956 116.198 145.59 123.035 143.566C126.127 142.67 129.151 141.707 132.621 140.579C145.643 136.364 151.553 133.012 157.668 126.407C165.983 117.413 170.622 105.63 172.752 88.073C172.992 86.0485 172.958 79.1782 172.614 65.3714C172.649 64.8736 172.614 63.6455 171.721 62.849Z" fill="white"/>
</svg>
