<svg width="375" height="74" viewBox="0 0 375 74" fill="none" xmlns="http://www.w3.org/2000/svg">
<path d="M65.0367 27.8586C64.5894 27.4455 63.688 28.4816 62.2037 28.6305C58.3609 29.0233 57.2629 29.179 55.2094 29.6056C53.027 30.0593 51.5089 30.5469 50.3431 31.1767C47.0764 32.9373 45.0906 35.9439 44.4874 40.0204C44.4061 40.5621 44.3247 42.878 44.379 43.0337C44.4061 43.1014 44.6094 42.9118 45.2465 42.2347C47.6321 39.6818 50.3092 37.8534 52.9592 36.9393C53.5353 36.7429 54.3893 36.533 54.43 36.5736C54.4367 36.5872 54.125 36.7632 53.7251 36.9799C51.6851 38.0769 49.8145 39.3703 48.3641 40.7111C47.7338 41.2934 46.9137 42.0451 46.0665 43.2166C45.3278 44.2391 44.2976 45.6611 44.135 46.9409C43.7215 50.1981 48.7436 53.8615 52.9525 55.182C57.7916 56.7056 61.9326 55.2565 63.1322 54.7621C65.2333 53.8954 66.7446 52.6968 67.7206 51.7555C66.887 52.4191 61.7022 56.3738 54.9654 55.0601C51.6512 54.4168 49.5366 52.8458 47.6864 51.3425C47.0899 50.8617 45.9852 49.873 45.9174 48.6474C45.9039 48.4307 45.8768 47.8619 46.2224 47.3134C46.4867 46.9003 46.846 46.6904 47.0086 46.5956C47.1781 46.494 47.5305 46.3992 48.2353 46.2028C48.6352 46.0877 48.947 46.0132 49.1435 45.9658C49.435 45.8981 49.6315 45.8575 49.7738 45.8304C50.3093 45.7153 50.6956 45.6137 51.2717 45.4579C53.6709 44.8146 54.0843 44.7402 55.433 44.3271C56.043 44.1443 56.6394 43.9479 57.3239 43.7176C59.8926 42.8577 61.0583 42.1737 62.2647 40.8262C63.9049 38.9911 64.8198 36.5872 65.24 33.005C65.2875 32.5919 65.2807 31.1902 65.2129 28.3732C65.2197 28.2716 65.2062 28.0211 65.0367 27.8586Z" fill="url(#paint0_linear_1_24506)"/>
<path d="M15.1748 43.2097C17.8654 47.0085 21.7693 49.1416 25.7748 49.1416C29.5769 49.1416 32.3693 47.469 32.3693 44.3744C32.3693 41.0292 28.9195 40.5755 23.4433 39.3566C18.0145 38.0903 12.1317 36.3636 12.1317 29.1722C12.1317 22.2313 18.1162 17.8704 25.6731 17.8704C31.9626 17.8704 36.8831 20.6603 39.4178 24.3102L34.4974 29.118C32.3693 26.1249 29.5295 24.1002 25.4698 24.1002C21.9184 24.1002 19.4853 25.8202 19.4853 28.4611C19.4853 31.2984 22.1217 31.8537 26.893 32.9236C32.6742 34.1899 39.777 35.6593 39.777 43.616C39.777 50.9632 33.2842 55.3715 25.524 55.3715C19.3904 55.3715 12.9992 52.5816 10.051 48.1733L15.1748 43.2097Z" fill="black"/>
<path d="M71.9836 28.1563H79.0864V30.892C80.5572 29.172 82.9903 27.6484 86.3926 27.6484C91.9704 27.6484 95.3727 31.4473 95.3727 37.2235V54.8093H88.2699V39.255C88.2699 36.2619 87.05 34.1356 84.0069 34.1356C81.5196 34.1356 79.0864 35.9098 79.0864 39.4039V54.8093H71.9836V28.1563Z" fill="black"/>
<path d="M112.764 49.392C115.705 49.392 117.481 47.3673 118.138 44.6316L124.272 47.3673C123.052 51.7282 118.897 55.3713 112.71 55.3713C104.949 55.3713 99.4731 49.7442 99.4731 41.4828C99.4731 33.2756 104.949 27.6484 112.71 27.6484C118.85 27.6484 122.903 31.1968 124.17 35.5035L118.132 38.3408C117.474 35.6051 115.698 33.5804 112.757 33.5804C109.002 33.5804 106.522 36.5192 106.522 41.4828C106.522 46.5006 109.009 49.392 112.764 49.392Z" fill="black"/>
<path d="M127.674 18.4255H134.777V30.892C136.248 29.1721 138.681 27.6485 142.083 27.6485C147.661 27.6485 151.063 31.4473 151.063 37.2235V54.8093H143.954V39.255C143.954 36.2619 142.734 34.1356 139.691 34.1356C137.203 34.1356 134.77 35.9098 134.77 39.4039V54.8093H127.667V18.4255H127.674Z" fill="black"/>
<path d="M154.913 47.4148C154.913 42.0923 159.176 39.8645 164.551 38.9029L171.192 37.6366V37.2303C171.192 34.9483 170.027 33.533 167.085 33.533C164.449 33.533 163.08 34.6977 162.47 37.0813L155.726 35.815C156.946 31.3052 160.999 27.6553 167.343 27.6553C174.086 27.6553 178.146 30.7499 178.146 36.9324V47.8279C178.146 49.2499 178.756 49.7036 180.329 49.5004V54.8229C175.815 55.4798 173.077 54.5724 171.911 52.3377C170.189 54.2135 167.499 55.2766 164.002 55.2766C158.769 55.2698 154.913 52.1278 154.913 47.4148ZM171.192 42.6002L165.967 43.6633C163.636 44.117 161.907 44.8822 161.907 47.0085C161.907 48.8301 163.276 49.9 165.405 49.9C168.4 49.9 171.186 48.329 171.186 45.3359V42.6002H171.192Z" fill="black"/>
<rect width="1" height="32" transform="translate(206 21)" fill="white"/>
<path d="M224.584 32.856V31.512H215.272V32.856H219.16V43H220.696V32.856H224.584ZM225.823 43H227.263V38.008C227.263 36.616 228.319 35.816 229.359 35.816C230.607 35.816 231.103 36.696 231.103 37.864V43H232.543V37.48C232.543 35.704 231.535 34.472 229.759 34.472C228.575 34.472 227.743 35.08 227.263 35.768V31.512H225.823V43ZM238.118 43.176C239.782 43.176 241.046 42.264 241.558 40.776L240.294 40.328C240.038 41.32 239.238 41.928 238.118 41.928C236.662 41.928 235.654 40.808 235.574 39.048H241.622V38.568C241.622 36.248 240.39 34.472 238.054 34.472C235.782 34.472 234.198 36.328 234.198 38.824C234.198 41.4 235.798 43.176 238.118 43.176ZM238.038 35.704C239.494 35.704 240.134 36.76 240.166 37.944H235.654C235.91 36.52 236.822 35.704 238.038 35.704ZM252.134 31.512L249.718 40.712L247.27 31.512H245.686L248.854 43H250.358L252.79 34.056L255.238 43H256.742L259.894 31.512H258.374L255.926 40.712L253.494 31.512H252.134ZM262.693 43.144C263.829 43.144 264.757 42.712 265.269 42.056C265.445 42.856 266.181 43.16 267.461 43V41.848C266.901 41.976 266.565 41.8 266.565 41.256V37.176C266.565 35.384 265.413 34.472 263.541 34.472C261.829 34.472 260.597 35.448 260.197 36.808L261.557 37.16C261.813 36.232 262.437 35.736 263.493 35.736C264.613 35.736 265.141 36.28 265.141 37.24V37.592L263.109 38.008C261.237 38.392 259.941 39.08 259.941 40.744C259.941 42.248 261.173 43.144 262.693 43.144ZM265.141 40.152C265.141 41.224 264.101 41.976 262.869 41.976C261.957 41.976 261.365 41.496 261.365 40.68C261.365 39.672 262.229 39.32 263.509 39.064L265.141 38.712V40.152ZM271.949 43.912L275.549 34.632H274.045L271.725 41.032L269.373 34.632H267.853L270.957 42.696L270.557 43.688C270.221 44.52 269.885 44.744 269.261 44.744C269.021 44.744 268.845 44.728 268.573 44.664V45.912C268.829 45.96 269.005 45.976 269.357 45.976C270.813 45.976 271.469 45.176 271.949 43.912ZM286.409 43L289.929 33.544V43H291.353V31.512H289.321L285.817 40.952L282.329 31.512H280.233V43H281.673V33.544L285.177 43H286.409ZM300.946 38.824C300.946 36.232 299.346 34.472 297.058 34.472C294.77 34.472 293.17 36.232 293.17 38.824C293.17 41.416 294.77 43.176 297.058 43.176C299.346 43.176 300.946 41.416 300.946 38.824ZM294.626 38.824C294.626 36.904 295.586 35.688 297.058 35.688C298.53 35.688 299.49 36.904 299.49 38.824C299.49 40.728 298.53 41.944 297.058 41.944C295.586 41.944 294.626 40.728 294.626 38.824ZM302.697 43H304.137V38.008C304.137 36.616 305.193 35.816 306.233 35.816C307.481 35.816 307.977 36.696 307.977 37.864V43H309.417V37.48C309.417 35.704 308.409 34.472 306.633 34.472C305.449 34.472 304.617 35.08 304.137 35.768V34.632H302.697V43ZM314.992 43.176C316.656 43.176 317.92 42.264 318.432 40.776L317.168 40.328C316.912 41.32 316.112 41.928 314.992 41.928C313.536 41.928 312.528 40.808 312.448 39.048H318.496V38.568C318.496 36.248 317.264 34.472 314.928 34.472C312.656 34.472 311.072 36.328 311.072 38.824C311.072 41.4 312.672 43.176 314.992 43.176ZM314.912 35.704C316.368 35.704 317.008 36.76 317.04 37.944H312.528C312.784 36.52 313.696 35.704 314.912 35.704ZM323.188 43.912L326.788 34.632H325.284L322.964 41.032L320.612 34.632H319.092L322.196 42.696L321.796 43.688C321.46 44.52 321.124 44.744 320.5 44.744C320.26 44.744 320.084 44.728 319.812 44.664V45.912C320.068 45.96 320.244 45.976 320.596 45.976C322.052 45.976 322.708 45.176 323.188 43.912ZM339.248 43H340.656V37.032H335.872V38.376H339.168C339.136 40.424 337.888 41.848 336.032 41.848C333.84 41.848 332.336 39.976 332.336 37.272C332.336 34.552 333.84 32.696 336.016 32.696C337.52 32.696 338.576 33.544 338.992 35L340.464 34.52C339.776 32.536 338.208 31.336 336 31.336C332.992 31.336 330.8 33.784 330.8 37.288C330.8 40.776 332.976 43.176 335.904 43.176C337.552 43.176 338.784 42.344 339.248 41.288V43ZM347.18 34.6C347.036 34.584 346.828 34.568 346.604 34.568C345.468 34.568 344.652 35.208 344.284 36.056V34.632H342.844V43H344.284V38.424C344.284 36.952 345.26 35.992 346.476 35.992C346.748 35.992 346.94 36.008 347.18 36.056V34.6ZM355.542 38.824C355.542 36.232 353.942 34.472 351.654 34.472C349.366 34.472 347.766 36.232 347.766 38.824C347.766 41.416 349.366 43.176 351.654 43.176C353.942 43.176 355.542 41.416 355.542 38.824ZM349.222 38.824C349.222 36.904 350.182 35.688 351.654 35.688C353.126 35.688 354.086 36.904 354.086 38.824C354.086 40.728 353.126 41.944 351.654 41.944C350.182 41.944 349.222 40.728 349.222 38.824ZM361.121 34.632L359.393 40.856L357.633 34.632H356.145L358.689 43H359.953L361.697 36.792L363.441 43H364.705L367.249 34.632H365.809L364.065 40.872L362.337 34.632H361.121ZM367.519 41.224C368.159 42.52 369.679 43.176 371.199 43.176C372.991 43.176 374.447 42.12 374.447 40.52C374.447 38.696 372.799 38.408 371.359 38.072C370.191 37.816 369.455 37.672 369.455 36.888C369.455 36.136 370.095 35.656 371.055 35.656C372.111 35.656 372.895 36.184 373.327 37.016L374.351 36.2C373.855 35.208 372.623 34.472 371.119 34.472C369.343 34.472 368.047 35.512 368.047 37C368.047 38.712 369.487 39.016 370.863 39.32C372.239 39.608 373.039 39.736 373.039 40.648C373.039 41.56 372.175 41.976 371.199 41.976C370.111 41.976 369.087 41.384 368.639 40.408L367.519 41.224Z" fill="white"/>
<defs>
<linearGradient id="paint0_linear_1_24506" x1="34.0989" y1="34.7691" x2="51.1076" y2="39.3867" gradientUnits="userSpaceOnUse">
<stop stop-color="#157E3F"/>
<stop offset="0.2875" stop-color="#1F5D2F"/>
</linearGradient>
</defs>
</svg>
