<svg xmlns="http://www.w3.org/2000/svg" width="24" height="28" viewBox="0 0 24 28" fill="none">
  <path d="M21.2535 0.0944196C20.7933 -0.31269 19.8877 0.719623 18.3734 0.865019C14.4689 1.25759 13.3555 1.40299 11.2622 1.83918C9.05015 2.2899 7.50617 2.78425 6.31849 3.40946C3.00785 5.16875 0.973956 8.16392 0.365272 12.2205C0.276197 12.7584 0.201967 15.0703 0.261351 15.2157C0.291043 15.2883 0.498886 15.0848 1.13726 14.416C3.55715 11.8715 6.2888 10.0541 8.97591 9.13808C9.55491 8.94906 10.4308 8.73097 10.4754 8.77459C10.4902 8.78913 10.1636 8.9636 9.76275 9.1817C7.68432 10.2722 5.79888 11.5662 4.31429 12.9038C3.67592 13.4854 2.84454 14.227 1.98348 15.4047C1.22634 16.4224 0.187122 17.8328 0.0238164 19.1123C-0.39187 22.3546 4.71513 26.0041 8.99076 27.3272C13.9048 28.8393 18.1062 27.3999 19.3384 26.9055C21.4762 26.0477 23.0053 24.8409 24 23.9104C23.1538 24.5646 17.8835 28.5194 11.0395 27.2109C7.66947 26.5711 5.51681 25.0008 3.64622 23.5032C3.03754 23.0234 1.9241 22.0347 1.84987 20.8134C1.83502 20.5953 1.80533 20.0283 2.16163 19.4903C2.42886 19.0832 2.80001 18.8651 2.96331 18.7779C3.14146 18.6761 3.49776 18.5889 4.21037 18.3853C4.61121 18.269 4.93782 18.1963 5.13082 18.1527C5.42773 18.08 5.62073 18.0509 5.76919 18.0218C6.31849 17.9055 6.70448 17.8037 7.29832 17.6438C9.73306 17.004 10.1487 16.9313 11.5294 16.5242C12.1529 16.3352 12.7616 16.1462 13.4594 15.9136C16.0723 15.0557 17.2599 14.3724 18.4773 13.0347C20.1401 11.2027 21.0753 8.80367 21.5059 5.24145C21.5504 4.83434 21.5504 3.43854 21.4762 0.632385C21.4465 0.501528 21.4317 0.254356 21.2535 0.0944196Z" fill="url(#paint0_linear_1880_67246)"/>
  <defs>
    <linearGradient id="paint0_linear_1880_67246" x1="-10.1781" y1="6.97167" x2="7.05699" y2="11.7453" gradientUnits="userSpaceOnUse">
      <stop stop-color="#157E3F"/>
      <stop offset="0.2875" stop-color="#1F5D2F"/>
    </linearGradient>
  </defs>
</svg>