<svg width="171" height="38" viewBox="0 0 171 38" fill="none" xmlns="http://www.w3.org/2000/svg">
<path d="M54.9858 9.98821C54.5384 9.57514 53.637 10.6112 52.1528 10.7602C48.3099 11.1529 47.212 11.3087 45.1584 11.7353C42.9761 12.189 41.4579 12.6765 40.2922 13.3063C37.0254 15.0669 35.0396 18.0735 34.4364 22.15C34.3551 22.6917 34.2738 25.0076 34.328 25.1634C34.3551 25.2311 34.5584 25.0415 35.1955 24.3643C37.5812 21.8114 40.2583 19.9831 42.9083 19.0689C43.4844 18.8725 44.3383 18.6626 44.379 18.7033C44.3858 18.7168 44.074 18.8929 43.6741 19.1095C41.6341 20.2065 39.7635 21.4999 38.3131 22.8407C37.6828 23.4231 36.8628 24.1747 36.0156 25.3462C35.2768 26.3687 34.2467 27.7907 34.084 29.0706C33.6706 32.3277 38.6927 35.9911 42.9015 37.3116C47.7406 38.8352 51.8817 37.3861 53.0813 36.8918C55.1823 36.025 56.6937 34.8264 57.6696 33.8852C56.836 34.5488 51.6512 38.5034 44.9144 37.1897C41.6002 36.5464 39.4857 34.9754 37.6354 33.4721C37.039 32.9913 35.9342 32.0027 35.8665 30.777C35.8529 30.5603 35.8258 29.9915 36.1715 29.443C36.4358 29.0299 36.795 28.82 36.9576 28.7252C37.1271 28.6236 37.4795 28.5288 38.1844 28.3325C38.5842 28.2173 38.896 28.1429 39.0926 28.0955C39.384 28.0277 39.5805 27.9871 39.7229 27.96C40.2583 27.8449 40.6446 27.7433 41.2207 27.5876C43.6199 26.9443 44.0333 26.8698 45.3821 26.4567C45.992 26.2739 46.5885 26.0775 47.273 25.8473C49.8416 24.9873 51.0074 24.3034 52.2138 22.9558C53.8539 21.1207 54.7689 18.7168 55.1891 15.1346C55.2365 14.7216 55.2297 13.3198 55.162 10.5029C55.1688 10.4013 55.1552 10.1507 54.9858 9.98821Z" fill="url(#paint0_linear_1_24519)"/>
<path d="M5.12378 25.3393C7.81444 29.1382 11.7183 31.2712 15.7238 31.2712C19.5259 31.2712 22.3183 29.5986 22.3183 26.504C22.3183 23.1589 18.8685 22.7052 13.3923 21.4863C7.96354 20.22 2.08069 18.4932 2.08069 11.3018C2.08069 4.36091 8.06521 0 15.6221 0C21.9116 0 26.8321 2.7899 29.3668 6.43979L24.4464 11.2476C22.3183 8.25458 19.4785 6.22987 15.4188 6.22987C11.8674 6.22987 9.43426 7.94985 9.43426 10.5908C9.43426 13.4281 12.0707 13.9833 16.8421 15.0533C22.6232 16.3195 29.726 17.789 29.726 25.7456C29.726 33.0928 23.2332 37.5011 15.473 37.5011C9.33937 37.5011 2.94821 34.7112 0 30.3029L5.12378 25.3393Z" fill="black"/>
<path d="M61.9327 10.2859H69.0355V13.0217C70.5062 11.3017 72.9393 9.77808 76.3416 9.77808C81.9195 9.77808 85.3218 13.5769 85.3218 19.3531V36.9389H78.219V21.3846C78.219 18.3915 76.999 16.2653 73.9559 16.2653C71.4686 16.2653 69.0355 18.0394 69.0355 21.5336V36.9389H61.9327V10.2859Z" fill="black"/>
<path d="M102.713 31.5217C105.654 31.5217 107.43 29.497 108.087 26.7612L114.221 29.497C113.001 33.8579 108.846 37.501 102.659 37.501C94.8983 37.501 89.4221 31.8738 89.4221 23.6124C89.4221 15.4053 94.8983 9.77808 102.659 9.77808C108.799 9.77808 112.852 13.3264 114.119 17.6331L108.081 20.4704C107.423 17.7347 105.647 15.71 102.706 15.71C98.9513 15.71 96.4707 18.6489 96.4707 23.6124C96.4707 28.6302 98.958 31.5217 102.713 31.5217Z" fill="black"/>
<path d="M117.623 0.555176H124.726V13.0217C126.197 11.3017 128.63 9.77809 132.032 9.77809C137.61 9.77809 141.012 13.577 141.012 19.3531V36.939H133.903V21.3846C133.903 18.3916 132.683 16.2653 129.64 16.2653C127.152 16.2653 124.719 18.0394 124.719 21.5336V36.939H117.616V0.555176H117.623Z" fill="black"/>
<path d="M144.862 29.5444C144.862 24.222 149.125 21.9941 154.5 21.0325L161.141 19.7662V19.3599C161.141 17.0779 159.976 15.6627 157.034 15.6627C154.398 15.6627 153.029 16.8274 152.419 19.211L145.675 17.9447C146.895 13.4348 150.948 9.78491 157.292 9.78491C164.035 9.78491 168.095 12.8795 168.095 19.062V29.9575C168.095 31.3795 168.705 31.8332 170.278 31.6301V36.9526C165.764 37.6094 163.026 36.702 161.86 34.4674C160.138 36.3431 157.448 37.4062 153.951 37.4062C148.718 37.3995 144.862 34.2575 144.862 29.5444ZM161.141 24.7298L155.916 25.793C153.585 26.2467 151.856 27.0119 151.856 29.1381C151.856 30.9597 153.225 32.0296 155.353 32.0296C158.349 32.0296 161.135 30.4586 161.135 27.4655V24.7298H161.141Z" fill="black"/>
<defs>
<linearGradient id="paint0_linear_1_24519" x1="24.048" y1="16.8987" x2="41.0566" y2="21.5163" gradientUnits="userSpaceOnUse">
<stop stop-color="#157E3F"/>
<stop offset="0.2875" stop-color="#1F5D2F"/>
</linearGradient>
</defs>
</svg>
