<svg width="112" height="112" viewBox="0 0 112 112" fill="none" xmlns="http://www.w3.org/2000/svg">
<g clip-path="url(#clip0_505_113)">
<rect x="1.99988" y="2" width="108" height="108" rx="8" fill="white"/>
<path d="M68.0948 43.04C62.4202 43.04 57.3491 45.9813 57.3491 51.4155C57.3491 57.6475 66.3429 58.078 66.3429 61.2088C66.3429 62.527 64.8322 63.7071 62.252 63.7071C58.5901 63.7071 55.8533 62.0582 55.8533 62.0582L54.6822 67.5419C54.6822 67.5419 57.835 68.9347 62.0209 68.9347C68.2251 68.9347 73.107 65.849 73.107 60.3219C73.107 53.7366 64.0757 53.319 64.0757 50.4131C64.0757 49.3804 65.3159 48.249 67.8887 48.249C70.7917 48.249 73.1601 49.4481 73.1601 49.4481L74.3062 44.1518C74.3062 44.1518 71.7291 43.04 68.0948 43.04ZM16.1774 43.4398L16.04 44.2392C16.04 44.2392 18.4274 44.6761 20.5775 45.5477C23.3461 46.5471 23.5433 47.1289 24.0096 48.936L29.0904 68.5225H35.9014L46.3941 43.4398H39.5988L32.8566 60.4937L30.1054 46.038C29.853 44.3835 28.575 43.4398 27.0106 43.4398H16.1774ZM49.1266 43.4398L43.7959 68.5225H50.2759L55.5878 43.4398H49.1266ZM85.2674 43.4398C83.7048 43.4398 82.877 44.2763 82.2695 45.7382L72.776 68.5225H79.5713L80.886 64.7251H89.1647L89.9642 68.5225H95.96L90.7293 43.4398H85.2674ZM86.1512 50.2164L88.1654 59.6286H82.7691L86.1512 50.2164Z" fill="#1434CB"/>
</g>
<rect x="1" y="1" width="110" height="110" rx="9" stroke="black" stroke-opacity="0.1" stroke-width="2"/>
<defs>
<clipPath id="clip0_505_113">
<rect x="2" y="2" width="108" height="108" rx="8" fill="white"/>
</clipPath>
</defs>
</svg>
